<?xml version="1.0" encoding="UTF-8"?>
<svg id="LOGO" xmlns="http://www.w3.org/2000/svg" viewBox="0 0 469.06 171.47">
  <defs>
    <style>
      .cls-1 {
        fill: #aca29a;
      }

      .cls-2 {
        fill: #582583;
      }
    </style>
  </defs>
  <path class="cls-2" d="M157.16,56.94c-2.59,8.58-10.46,16.43-22.57,16.43h-12.52s-.18-4.83-.18-7.31c0-2.29-.02-23.66-.02-26.81h25.57v-4.24h-25.57V14.04c0-3.07.11-9.19.11-9.19h12.08c13.87,0,19.81,8.75,21.31,15.85h3l-.17-18.92h-60.2v2.02l7.13,2.77s.21,4.65.21,7.48v50.13c0,2.64-.21,7.48-.21,7.48l-7.13,2.74v2.04h62.13l.18-19.49h-3.14Z"/>
  <path class="cls-2" d="M75.84,1.77h-17.38v2.02l6.2,2.55.13.24s.21,4.63.21,7.46v36.18L26.95,1.77H0v2.02l6.61,2.56.12.22c0,.05.21,4.94.21,7.46v49.81c0,2.65-.21,7.73-.21,7.79l-.04.19-6.68,2.58v2.04h18.17v-2.04l-6.9-2.58-.03-.18c0-.05-.21-5.27-.21-7.79V16.99c0-2.48.08-7.28.1-8.81l53.73,68.25h4.56V14.04c0-2.77.22-7.42.22-7.46l.04-.21,6.16-2.58V1.77Z"/>
  <path class="cls-2" d="M378.32,6.56l7.13-2.77V1.77h-24.63s-22.24,53.62-22.24,53.62L317.81,1.77h-25.68v2.02l6.56,2.58.06.2s.22,4.91.22,7.34v50.88c0,2.3-.22,6.78-.22,6.83l-.06.2-6.57,2.56v2.04h19.46v-2.04l-7.91-2.61v-.15s-.2-4.45-.2-6.83V10.73c.86,3.02,1.27,3.97,2.57,7.11l23.24,58.6h4.73l.37.15,27.09-65.92v54.15c0,2.27-.22,6.85-.22,6.85l-7.98,2.74v2.04h32.16v-2.04l-7.13-2.74s-.21-4.41-.21-6.85V13.92c0-2.78.21-7.36.21-7.36"/>
  <g>
    <path class="cls-2" d="M272.24,39.03c0,21.65-13.36,37.04-33.86,39.01,12.84-10.51,14.48-32.35,14.48-39.01s-1.64-28.48-14.48-39.03c20.5,2,33.86,17.38,33.86,39.03"/>
    <path class="cls-1" d="M182.51,39.03c0,21.65,13.37,37.04,33.88,39.01-12.84-10.51-14.5-32.35-14.5-39.01s1.66-28.48,14.5-39.03c-20.5,2-33.88,17.38-33.88,39.03"/>
  </g>
  <path class="cls-2" d="M463.26,71.65L435.63,1.77h-4.12l-.57.03-26.42,70.01-5.63,2.58v2.04h15.19v-2.04l-4.98-2.64.02-.05s3.07-8.02,6.71-17.61h22.75l6.17,17.55-5.42,2.75v2.04h29.74v-2.04l-5.8-2.75ZM437.2,50.17h-19.87c4.33-11.36,9.28-24.42,10.3-27.23l9.57,27.23Z"/>
  <g>
    <path class="cls-2" d="M14.07,104.83c3.08.34,4.94,2.32,4.94,5.24,0,3.72-2.47,6.15-7.94,6.15H2.57v-22.37h8.58c4.52,0,6.95,2.01,6.95,5.66,0,2.85-1.63,4.63-4.03,5.17v.15ZM10.32,103.35c1.94,0,3.19-.8,3.19-2.81s-1.25-2.81-3.34-2.81h-3v5.62h3.15ZM7.16,112.35h3.8c2.13,0,3.38-.8,3.38-2.89,0-1.71-1.06-2.7-3.42-2.7h-3.76v5.58Z"/>
    <path class="cls-2" d="M53.27,93.85v14.92c0,5.96-4.25,7.9-9,7.9s-9.04-1.94-9.04-7.9v-14.92h4.6v13.67c0,3.46,1.18,5.32,4.44,5.32s4.41-1.86,4.41-5.32v-13.67h4.6Z"/>
    <path class="cls-2" d="M72.53,109.43c.46,2.35,2.13,3.72,4.37,3.72,1.94,0,3.3-.84,3.3-2.54,0-1.59-.87-2.39-4.03-3.46-4.6-1.48-7.03-3.27-7.03-7.18,0-4.94,3.87-6.61,7.63-6.61,4.44,0,7.75,1.56,8.16,5.85l-4.56,1.06c-.19-2.13-1.75-3.15-3.53-3.15-1.63,0-2.92.84-2.92,2.47,0,1.78,1.41,2.47,4.22,3.38,4.25,1.4,6.8,2.92,6.8,7.18,0,4.71-3.8,6.53-8.39,6.53s-7.25-1.56-8.24-5.58l4.22-1.67Z"/>
    <path class="cls-2" d="M106.26,93.85v22.37h-4.6v-22.37h4.6Z"/>
    <path class="cls-2" d="M137.06,105.32c1.25,1.82,2.09,3.42,2.09,3.42h.15s-.15-2.05-.15-4.9v-9.99h4.6v22.37h-4.29l-8.24-11.36c-1.41-1.94-2.28-3.65-2.28-3.65h-.15s.23,2.01.23,5.13v9.87h-4.6v-22.37h4.44l8.2,11.47Z"/>
    <path class="cls-2" d="M176.49,116.22h-14.58v-22.37h14.58v3.99h-9.99v5.17h8.81v3.87h-8.81v5.35h9.99v3.99Z"/>
    <path class="cls-2" d="M195.67,109.43c.46,2.35,2.13,3.72,4.37,3.72,1.94,0,3.3-.84,3.3-2.54,0-1.59-.87-2.39-4.03-3.46-4.6-1.48-7.03-3.27-7.03-7.18,0-4.94,3.87-6.61,7.63-6.61,4.44,0,7.75,1.56,8.16,5.85l-4.56,1.06c-.19-2.13-1.75-3.15-3.53-3.15-1.63,0-2.92.84-2.92,2.47,0,1.78,1.41,2.47,4.22,3.38,4.25,1.4,6.8,2.92,6.8,7.18,0,4.71-3.8,6.53-8.39,6.53s-7.25-1.56-8.24-5.58l4.22-1.67Z"/>
    <path class="cls-2" d="M226.93,109.43c.46,2.35,2.13,3.72,4.37,3.72,1.94,0,3.3-.84,3.3-2.54,0-1.59-.87-2.39-4.03-3.46-4.6-1.48-7.03-3.27-7.03-7.18,0-4.94,3.87-6.61,7.63-6.61,4.44,0,7.75,1.56,8.17,5.85l-4.56,1.06c-.19-2.13-1.75-3.15-3.53-3.15-1.63,0-2.92.84-2.92,2.47,0,1.78,1.41,2.47,4.22,3.38,4.25,1.4,6.8,2.92,6.8,7.18,0,4.71-3.8,6.53-8.39,6.53s-7.25-1.56-8.24-5.58l4.22-1.67Z"/>
    <path class="cls-2" d="M278.74,109.43c.46,2.35,2.13,3.72,4.37,3.72,1.94,0,3.3-.84,3.3-2.54,0-1.59-.87-2.39-4.03-3.46-4.6-1.48-7.03-3.27-7.03-7.18,0-4.94,3.87-6.61,7.63-6.61,4.44,0,7.75,1.56,8.16,5.85l-4.56,1.06c-.19-2.13-1.75-3.15-3.53-3.15-1.63,0-2.92.84-2.92,2.47,0,1.78,1.4,2.47,4.21,3.38,4.25,1.4,6.8,2.92,6.8,7.18,0,4.71-3.8,6.53-8.39,6.53s-7.25-1.56-8.24-5.58l4.21-1.67Z"/>
    <path class="cls-2" d="M325.99,111.7c-2.05,3.38-4.63,4.98-9.42,4.98-6,0-10.1-4.18-10.1-11.62s4.14-11.66,10.79-11.66c4.41,0,7.25,1.97,8.85,5.58l-4.41,2.13c-.76-2.35-2.2-3.68-4.63-3.68-3.65,0-5.85,2.92-5.85,7.71s1.94,7.48,5.81,7.48c2.28,0,3.99-1.03,5.13-3.3l3.84,2.39Z"/>
    <path class="cls-2" d="M341.98,116.22v-22.37h4.6v9h9.3v-9h4.59v22.37h-4.59v-9.34h-9.3v9.34h-4.6Z"/>
    <path class="cls-2" d="M377.23,105.06c0-7.52,3.99-11.66,10.44-11.66s10.44,4.14,10.44,11.66-3.99,11.62-10.44,11.62-10.44-4.14-10.44-11.62ZM382.01,105.09c0,4.75,1.9,7.6,5.66,7.6s5.62-2.85,5.62-7.6-1.9-7.6-5.62-7.6-5.66,2.89-5.66,7.6Z"/>
    <path class="cls-2" d="M413.46,105.06c0-7.52,3.99-11.66,10.44-11.66s10.44,4.14,10.44,11.66-3.99,11.62-10.44,11.62-10.44-4.14-10.44-11.62ZM418.25,105.09c0,4.75,1.9,7.6,5.66,7.6s5.62-2.85,5.62-7.6-1.9-7.6-5.62-7.6-5.66,2.89-5.66,7.6Z"/>
    <path class="cls-2" d="M455.7,93.85v18.38h9.19v3.99h-13.79v-22.37h4.6Z"/>
  </g>
  <g>
    <path class="cls-2" d="M76.92,171.08c-.42-.51-.61-.96-.77-1.7l-.8-3.42c-.58-2.4-1.86-2.88-3.84-2.88h-2.72v8h-2.49v-18.84h6.24c4.35,0,6.27,1.92,6.27,5.25,0,2.97-2.08,4.57-4.41,4.67v.06c1.79.22,2.78,1.02,3.33,3.13l.96,3.77c.19.74.51,1.41.96,1.95h-2.72ZM68.79,161.04h3.68c2.56,0,3.71-1.12,3.71-3.39,0-2.08-1.15-3.33-3.71-3.33h-3.68v6.72Z"/>
    <path class="cls-2" d="M97.99,171.08h-11.26v-18.84h11.26v2.17h-8.76v6.17h7.77v2.17h-7.77v6.14h8.76v2.17Z"/>
    <path class="cls-2" d="M108.01,152.25v18.84h-2.49v-18.84h2.49Z"/>
    <path class="cls-2" d="M124.35,166.38l-3.84-7.26c-1.15-2.17-1.41-3.33-1.41-3.33h-.13s.16,1.18.16,3.45v11.83h-2.49v-18.84h3.1l4.77,9.5c.64,1.28.83,2.11.83,2.11h.13s.19-.83.83-2.11l4.77-9.5h2.91v18.84h-2.49v-11.83c0-2.27.16-3.45.16-3.45h-.13s-.26,1.15-1.41,3.33l-3.84,7.26h-1.92Z"/>
    <path class="cls-2" d="M143.22,166.06c.38,2.46,1.92,3.49,4.06,3.49s3.68-1.02,3.68-2.97c0-1.79-.86-2.69-4.16-3.93-2.46-.93-5.28-1.98-5.28-5.6,0-3.81,2.97-5.21,5.79-5.21,3.33,0,5.85,1.38,6.14,4.99l-2.43.38c-.19-2.21-1.63-3.42-3.68-3.42s-3.36,1.12-3.36,3.04c0,2.11,1.66,2.75,4.41,3.81,2.56.99,5.09,2.11,5.09,5.6s-2.85,5.24-6.3,5.24c-3.74,0-5.85-1.54-6.33-4.99l2.37-.42Z"/>
    <path class="cls-2" d="M169.45,161.04c1.34,0,2.43,1.09,2.43,2.43s-1.09,2.37-2.43,2.37-2.37-1.09-2.37-2.37c0-1.34,1.09-2.43,2.37-2.43Z"/>
    <path class="cls-2" d="M197.53,171.08c-.42-.51-.61-.96-.77-1.7l-.8-3.42c-.58-2.4-1.85-2.88-3.84-2.88h-2.72v8h-2.49v-18.84h6.24c4.35,0,6.27,1.92,6.27,5.25,0,2.97-2.08,4.57-4.41,4.67v.06c1.79.22,2.78,1.02,3.33,3.13l.96,3.77c.19.74.51,1.41.96,1.95h-2.72ZM189.41,161.04h3.68c2.56,0,3.71-1.12,3.71-3.39,0-2.08-1.15-3.33-3.71-3.33h-3.68v6.72Z"/>
    <path class="cls-2" d="M205.75,161.68c0-6.3,3.29-9.82,8.35-9.82s8.35,3.52,8.35,9.82-3.29,9.79-8.35,9.79-8.35-3.52-8.35-9.79ZM208.38,161.68c0,4.77,1.98,7.64,5.73,7.64s5.72-2.88,5.72-7.64-1.98-7.64-5.72-7.64-5.73,2.88-5.73,7.64Z"/>
    <path class="cls-2" d="M243.33,152.25v12.7c0,4.86-3.58,6.52-7.1,6.52s-7.07-1.66-7.07-6.52v-12.7h2.49v12.09c0,3.65,1.86,5.09,4.57,5.09s4.61-1.44,4.61-4.99v-12.19h2.49Z"/>
    <path class="cls-2" d="M262.59,171.08h-11.26v-18.84h11.26v2.17h-8.76v6.17h7.77v2.17h-7.77v6.14h8.76v2.17Z"/>
    <path class="cls-2" d="M280.44,163.6c1.15,1.73,2.3,3.9,2.3,3.9h.13s-.16-2.14-.16-4.51v-10.75h2.49v18.84h-2.59l-7.77-11.35c-1.18-1.73-2.3-3.9-2.3-3.9h-.13s.19,2.14.19,4.51v10.75h-2.49v-18.84h2.66l7.68,11.35Z"/>
    <path class="cls-2" d="M302.6,161.04c1.34,0,2.43,1.09,2.43,2.43s-1.09,2.37-2.43,2.37-2.37-1.09-2.37-2.37c0-1.34,1.09-2.43,2.37-2.43Z"/>
    <path class="cls-2" d="M320.07,171.08v-18.84h5.34c4.61,0,6.59,2.14,6.59,5.6,0,3.68-2.08,6.05-6.33,6.05h-3.1v7.2h-2.49ZM322.56,161.84h2.88c3.04,0,3.93-1.57,3.93-3.84s-1.41-3.68-4-3.68h-2.81v7.52Z"/>
    <path class="cls-2" d="M347.64,165.52h-7.9l-1.95,5.56h-2.59l6.88-18.84h3.39l6.81,18.84h-2.69l-1.95-5.56ZM340.44,163.47h6.46l-1.7-4.89c-1.02-2.91-1.44-4.83-1.44-4.83h-.13s-.45,1.89-1.47,4.8l-1.73,4.93Z"/>
    <path class="cls-2" d="M369.13,171.08c-.42-.51-.61-.96-.77-1.7l-.8-3.42c-.58-2.4-1.85-2.88-3.84-2.88h-2.72v8h-2.49v-18.84h6.24c4.35,0,6.27,1.92,6.27,5.25,0,2.97-2.08,4.57-4.41,4.67v.06c1.79.22,2.78,1.02,3.33,3.13l.96,3.77c.19.74.51,1.41.96,1.95h-2.72ZM361.01,161.04h3.68c2.56,0,3.71-1.12,3.71-3.39,0-2.08-1.15-3.33-3.71-3.33h-3.68v6.72Z"/>
    <path class="cls-2" d="M381.45,152.25v18.84h-2.49v-18.84h2.49Z"/>
    <path class="cls-2" d="M390.69,166.06c.38,2.46,1.92,3.49,4.06,3.49s3.68-1.02,3.68-2.97c0-1.79-.86-2.69-4.16-3.93-2.46-.93-5.28-1.98-5.28-5.6,0-3.81,2.98-5.21,5.79-5.21,3.33,0,5.85,1.38,6.14,4.99l-2.43.38c-.19-2.21-1.63-3.42-3.68-3.42s-3.36,1.12-3.36,3.04c0,2.11,1.66,2.75,4.41,3.81,2.56.99,5.09,2.11,5.09,5.6s-2.85,5.24-6.3,5.24c-3.74,0-5.85-1.54-6.33-4.99l2.37-.42Z"/>
  </g>
</svg>