<?xml version="1.0" encoding="UTF-8"?>
<svg id="Layer_1" data-name="Layer 1" xmlns="http://www.w3.org/2000/svg" viewBox="0 0 785.51 422.67">
  <defs>
    <style>
      .cls-1 {
        fill: #2e3192;
      }
    </style>
  </defs>
  <path class="cls-1" d="M257.6,281.66c2.27-8.75,9.01-27.29,13.38-37.22,0,0-31.85-3.6-52.04,4.76,4.12-51.17,5.86-134.12,5.86-138.54-5.21.88-11.81.99-19.1.64.75-16.1,1.85-17.21,4.1-18.96h.65v-4.97c1.32-.28,6.37-2.89,6.4-8.54.03-2.37-.75-4.32-2.29-5.85-2.04-2.01-5.15-2.89-7.6-3.1,0-1.19-.02-4.5-.02-4.5h-18.69c.45-.16.51,0,.74-.26,1.3-1.49-.68-4.4.1-3.52.89,1,.59,1.54,1.29,1.88,2.19,1.07,1.39-2.18,2.59-1.68,1.02.42,1.59-1.35.45-1.88-.63-.3-.09-.74.75.44.75,1.08.21,3.61,1.17,2.48,1.58-1.92.45-4.87-.25-6.56-.56-1.32-1.51-5.8,1.06-8.54,2.73-2.92,9.09-1.16,7.15-6.25.96,1.36,2.83,3.99-.07,8.27-1,1.46-3.7,2.19-5.3,4.47-1.49,2.11-1.28,8.73-.36,8.12,1.79-1.21,1.95.87,2.77-.59.89-1.58,1.62-1.43,1.19-3.45-.37-1.72-.27-1.32-.39-2.45-.12-1.29,2.94-3.06,2.15-5.17-.59-1.55,1.35.85.05,5.19-.37,1.26-3.64,7.72-.65,8.4,1.53.35.8-2.47,1.59-3.01,1.21-.84,1.98-2.67,1.53-4.83-.5-2.39,1.48-4.24,1.42-4.06-.16.4-1.03,1.96-.63,3.08.45,1.22.05,2.05-.67,3.48-.38.73-.59,1.78-1.34,2.84-.39.57.22.88.87.52.73-.4,1.03-.03.9.8-.16,1.05.57,2.13,1.22-.3.1-.42.5-.38,1.08-.61.49-.18-.78.53-.28,1.16.34.44.72.75,1.03-.94.23-1.19.86-.44,1.36-1.84.3-.87-.06,1.94-1.34,3.12-.71.68-1.82,1.59-2.13,1.75,1.17-.13,5.13-2.28,7.39-6,5.08-8.33.82-12.53,2.99-14.45,6.39-5.63,4.27-11.89,4.27-8.64,0,2.08-1.44,3.81-2.79,5.1,1.84-2.01,3.44-4.77,2.09-9.45-1.45-5.1,10.09-6.41,6-16.2-.96-2.34,4.17-4.89,3.52-4.83-1.15.11-2.19.63-3.52,1.45-.38.26-1.1,1.39-1.18.07-.02-.78-.81-1.61-.81-1.36-.06,1.85-1.37,1.94-1.96,3.31-.6,1.41,1.59,3.68.3,5.52-.26.38-.36.9-.48,1.45.17-.61.55-1.21,1.65-1.71.04-.02.04-.02.04-.02t.01,0c-.1.05-1.03.7-.78,2.81.33,2.84-2.82,1.25-3.87,4.68-.97,3.14.03,3.18-.54,5.08-.61,2.1-1.11.85-1.27,3.31-.16,2.48.06,3.12-1.52,4.41,0,0,1.09-.93.91-2.55-.23-2.4-.78-3.44-1.42-4.97-.7-1.76-.27-3.88,2.27-5.72,2.54-1.84,3.72-1.26,4.26-3.64.11-.45.11-.91.17-1.36-.24,1.11-.66,2.33-2.54,3.05-.14.06-.29.13-.46.21,2.65-3.35,2.65-8.85,2.01-5.89-.58,2.68-1.8,3.98-3.05,5.16-2.49,2.32-5.55,2.57-6.96,5.14-.34.61-1.5,3.55-1.76,6.44-.75.85-2.57,1.07-2.17.86,1.32-.73,1.57-2.29.68-2.88-1.05-.7,1.61-2.83.93-2.7-3.08.65-5.19,4.63-4.49,3.24.17-.35.23-.59.27-.78,2.34-2,6.57-6.44,6.27-9.71-.88-9.59,3.29-8.17,5.75-9.97.56-.42-1.19-.29-3.05.64,4.11-2.09,9.23-7.07,6.8-13.17-1.06-2.62-.94-1.06-.28.74.23.63.2,1.12-.03,1.58.16,1.63-.19,4.1-2.4,6.97-2.54,3.31-7.17,5.39-6.37,4.76,2.45-1.85,2.05-6.36,5.25-8.07,2.11-1.11,2.94-2.23,3.19-3.19-.64.74-1.75,1.37-2.96,2.18-.06-.29-.23-.36-.34.07-.02.06-.04.14-.06.22-.88.61-1.76,1.37-2.5,2.34-.89.39-2.04.79-3.72,1.25-.94.26-1.74.43-2.48.57-.54.02-1.12.13-1.75.31-2.46.37-3.67.46-4.61,2.23-.06.12-.1.29-.17.47-2.96,2.75-3.23,6.08-6.56,8.06-.38.23-.83.37-1.27.54,3.73-2.86,4.72-6.76,2.41-3.48-4.55,6.52-10.01,1.82-21.86,11.72-11.02,9.22-8.23,20.09-5.1,26.74,2.22,4.74,5.14,5.95,7.24,6.84,0,0,2.06.93-.87-1.32-.2-.15-.35-.34-.55-.49.18.14.34.28.53.41-.92-.8-1.55-1.68-1.46-2.51.16-1.45-.71-.7-1.42-2.04-.52-.97-.1-1.75-.07-2.01.1-.76.16,1.68.95,1.78.35.01,1.19.19,1.29,2.78.04.95.35,1.59.76,2.04.38.25.73.47,1.07.69.99.32,1.99.09,2.06-.22.26-1.5-2.57-2.5-2-4.5.66-2.37-.04.5.92.98.74.37.27,2.05,1.24,2.82.72.56.75-.43,1.48.86,1.38,2.45.62-.7,1.43,1,.39.85.98-.71.65-1.84-.26-.84,1.99.47,1.72,1.95-.06.3.1.58.34.79h-7.39l.04,4.46c-2.5.09-10.41,1.72-10.41,8.99,0,6.27,5.56,8.25,6.42,8.51l-.03,4.99h.66c2.02,1.9,3.28,2.63,4.07,16.31-10.18-1.31-20.1-2.8-28.26-3.84.73-9.97,1.81-10.99,3.73-12.47h.63v-4.97c1.32-.28,6.37-2.89,6.41-8.54.02-2.37-.75-4.32-2.32-5.85-2.03-2.01-5.14-2.89-7.59-3.1,0-1.19-.02-4.5-.02-4.5h-.23c1.48-.43,4.97-2.51,7.05-5.92,5.08-8.33.81-12.53,2.98-14.45,6.38-5.63,4.26-11.89,4.26-8.64,0,2.08-1.42,3.81-2.79,5.1,1.83-2.01,3.44-4.77,2.11-9.45-1.45-5.1,10.07-6.41,5.99-16.2-.96-2.34,4.16-4.89,3.52-4.83-1.16.11-2.19.63-3.52,1.45-.36.26-1.11,1.39-1.18.07-.02-.78-.81-1.61-.81-1.36-.06,1.85-1.37,1.94-1.97,3.31-.59,1.41,1.6,3.68.3,5.52-.27.38-.36.9-.49,1.45.18-.61.55-1.21,1.66-1.71.02-.02.04-.02.04-.02t.01,0c-.09.05-1.02.7-.77,2.81.33,2.84-2.82,1.25-3.89,4.68-.97,3.14.06,3.18-.53,5.08-.61,2.1-1.09.85-1.26,3.31-.16,2.48.06,3.12-1.51,4.41,0,0,1.08-.93.9-2.55-.24-2.4-.78-3.44-1.4-4.97-.7-1.76-.28-3.88,2.27-5.72,2.54-1.84,3.72-1.26,4.26-3.64.1-.45.1-.91.17-1.36-.24,1.11-.66,2.33-2.52,3.05-.15.06-.31.13-.47.21,2.65-3.35,2.65-8.85,2-5.89-.57,2.68-1.79,3.98-3.04,5.16-2.5,2.32-5.54,2.57-6.96,5.14-.33.61-1.5,3.55-1.76,6.44-.76.85-2.57,1.07-2.16.86,1.32-.73,1.57-2.29.68-2.88-1.04-.7,1.6-2.83.93-2.7-3.07.65-5.18,4.63-4.48,3.24.17-.35.23-.59.26-.78,2.34-2,6.58-6.44,6.27-9.71-.87-9.59,3.29-8.17,5.75-9.97.56-.42-1.19-.29-3.05.64,4.11-2.09,9.23-7.07,6.79-13.17-1.05-2.62-.92-1.06-.26.74.22.63.18,1.12-.05,1.58.17,1.63-.18,4.1-2.39,6.97-2.55,3.31-7.17,5.39-6.35,4.76,2.41-1.85,2.04-6.36,5.23-8.07,2.11-1.11,2.94-2.23,3.19-3.19-.64.74-1.74,1.37-2.96,2.18-.06-.29-.23-.36-.33.07-.03.06-.05.14-.06.22-.88.61-1.76,1.37-2.51,2.34-.88.39-2.04.79-3.72,1.25-.94.26-1.75.43-2.49.57-.52.02-1.1.13-1.74.31-2.45.37-3.67.46-4.62,2.23-.05.12-.11.29-.16.47-2.97,2.75-3.24,6.08-6.57,8.06-.38.23-.83.37-1.25.54,3.72-2.86,4.72-6.76,2.4-3.48-4.55,6.52-10.03,1.82-21.87,11.72-11.02,9.22-8.22,20.09-5.09,26.74,2.22,4.74,5.13,5.95,7.24,6.84,0,0,2.06.93-.86-1.32-.21-.15-.38-.34-.56-.49.17.14.33.28.51.41-.9-.8-1.53-1.68-1.45-2.51.16-1.45-.7-.7-1.42-2.04-.53-.97-.1-1.75-.08-2.01.12-.76.17,1.68.96,1.78.33.01,1.19.19,1.27,2.78.04.95.34,1.59.78,2.04.36.25.71.47,1.07.69.96.32,1.99.09,2.05-.22.26-1.5-2.57-2.5-2.02-4.5.66-2.37-.02.5.93.98.74.37.27,2.05,1.25,2.82.7.56.74-.43,1.47.86,1.4,2.45.61-.7,1.43,1,.41.85.98-.71.65-1.84-.26-.84,1.99.47,1.72,1.95-.17.89,1.5,1.65,1.88.8.42-.99-.34-1.05-.65-1.54-.39-.65-.8-1.46-.24-2.45.4-.7-.51,1.43.99,2.06,1.62.68.45,2.41,1.44,2,.64-.3.68-.04.95-.34,1.3-1.49-.69-4.4.1-3.52.89,1,.59,1.54,1.3,1.88,2.17,1.07,1.38-2.18,2.59-1.68,1.02.42,1.59-1.35.46-1.88-.64-.3-.1-.74.71.44.77,1.08.23,3.61,1.18,2.48,1.6-1.92.45-4.87-.25-6.56-.55-1.32-1.49-5.8,1.07-8.54,2.73-2.92,9.1-1.16,7.16-6.25.95,1.36,2.83,3.99-.08,8.27-1,1.46-3.69,2.19-5.28,4.47-1.49,2.11-1.28,8.73-.37,8.12,1.79-1.21,1.95.87,2.78-.59.88-1.58,1.62-1.43,1.2-3.45-.37-1.72-.29-1.32-.42-2.45-.1-1.29,2.96-3.06,2.16-5.17-.57-1.55,1.36.85.06,5.19-.38,1.26-3.65,7.72-.64,8.4,1.51.35.78-2.47,1.58-3.01,1.21-.84,1.98-2.67,1.53-4.83-.5-2.39,1.48-4.24,1.42-4.06-.15.4-1.02,1.96-.63,3.08.46,1.22.06,2.05-.67,3.48-.37.73-.58,1.78-1.33,2.84-.39.57.21.88.87.52.73-.4,1.03-.03.9.8-.16,1.05.57,2.13,1.22-.3.11-.42.5-.38,1.09-.61.49-.18-.78.53-.29,1.16.33.44.71.75,1.04-.94.22-1.19.85-.44,1.35-1.84.3-.87-.06,1.94-1.35,3.12-.63.61-1.57,1.39-1.99,1.67h-1.52c-.4.1-.65.12-.71,0-.27.08-.58.14-.9.21-.2.07-.35.15-.58.22h-.38c-.78.11-1.55.19-2.37.22-3.43.29-7.84.3-11.83.17-3.19-.47-6.01.34-8.94-.67-.29-.06-.51-.1-.69-.14h-1.01l.06,4.46c-2.5.09-10.41,1.72-10.41,8.99,0,6.27,5.56,8.25,6.42,8.51l-.02,4.99h.66c1.79,1.68,3,2.46,3.79,12.36-9.03,1.17-20.42,2.99-31.98,4.49.76-14.08,1.83-15.19,4-16.85h.63v-4.97c1.33-.28,6.37-2.89,6.42-8.54.02-2.37-.75-4.32-2.3-5.85-2.04-2.01-5.17-2.89-7.61-3.1,0-1.14-.03-4.22-.03-4.47,1.41-.38,5.01-2.48,7.11-5.94,5.08-8.33.82-12.53,3-14.45,6.38-5.63,4.25-11.89,4.25-8.64,0,2.08-1.43,3.81-2.79,5.1,1.84-2.01,3.44-4.77,2.11-9.45-1.44-5.1,10.07-6.41,6.01-16.2-.97-2.34,4.15-4.89,3.51-4.83-1.17.11-2.19.63-3.51,1.45-.36.26-1.12,1.39-1.18.07-.01-.78-.82-1.61-.82-1.36-.05,1.85-1.37,1.94-1.95,3.31-.6,1.41,1.6,3.68.29,5.52-.26.38-.37.9-.49,1.45.18-.61.56-1.21,1.68-1.71.01-.02.03-.02.03-.02-.09.05-1.01.7-.77,2.81.33,2.84-2.83,1.25-3.89,4.68-.96,3.14.04,3.18-.53,5.08-.61,2.1-1.1.85-1.26,3.31-.16,2.48.07,3.12-1.51,4.41,0,0,1.07-.93.89-2.55-.23-2.4-.77-3.44-1.4-4.97-.7-1.76-.27-3.88,2.26-5.72,2.55-1.84,3.73-1.26,4.27-3.64.1-.45.1-.91.17-1.36-.24,1.11-.65,2.33-2.54,3.05-.15.06-.3.13-.45.21,2.65-3.35,2.65-8.85,2-5.89-.58,2.68-1.79,3.98-3.06,5.16-2.49,2.32-5.52,2.57-6.95,5.14-.34.61-1.51,3.55-1.76,6.44-.75.85-2.57,1.07-2.16.86,1.31-.73,1.55-2.29.67-2.88-1.05-.7,1.62-2.83.92-2.7-3.06.65-5.16,4.63-4.47,3.24.16-.35.23-.59.27-.78,2.34-2,6.57-6.44,6.28-9.71-.89-9.59,3.28-8.17,5.75-9.97.55-.41-1.18-.29-3.03.63,4.11-2.09,9.21-7.07,6.77-13.16-1.04-2.62-.92-1.06-.27.74.22.63.18,1.12-.04,1.58.17,1.63-.17,4.1-2.39,6.97-2.55,3.31-7.17,5.39-6.36,4.76,2.43-1.85,2.04-6.36,5.24-8.07,2.11-1.11,2.94-2.23,3.19-3.19-.63.74-1.75,1.37-2.96,2.18-.06-.29-.24-.36-.33.07-.02.06-.05.14-.06.22-.91.61-1.78,1.37-2.53,2.34-.87.39-2.04.79-3.7,1.25-.95.26-1.74.43-2.48.57-.54.02-1.13.13-1.77.31-2.45.37-3.67.46-4.6,2.23-.06.12-.11.29-.16.47-2.98,2.75-3.25,6.08-6.58,8.06-.39.23-.84.37-1.26.54,3.73-2.86,4.7-6.76,2.42-3.48-4.56,6.52-10.02,1.82-21.87,11.72-11.03,9.22-8.23,20.09-5.09,26.74,2.22,4.74,5.14,5.95,7.23,6.84,0,0,2.04.93-.87-1.32-.21-.15-.36-.34-.55-.49.18.14.34.28.52.41-.9-.8-1.53-1.68-1.45-2.51.15-1.45-.71-.7-1.42-2.04-.53-.97-.11-1.75-.09-2.01.1-.76.18,1.68.97,1.78.33.01,1.18.19,1.27,2.78.04.95.33,1.59.76,2.04.36.25.72.47,1.07.69.98.32,2,.09,2.06-.22.25-1.5-2.59-2.5-2.02-4.5.66-2.37-.04.5.93.98.75.37.25,2.05,1.24,2.82.71.56.75-.43,1.47.86,1.38,2.45.61-.7,1.44,1,.39.85.98-.71.65-1.84-.26-.84,1.99.47,1.71,1.95-.15.89,1.51,1.65,1.87.8.43-.99-.34-1.05-.63-1.54-.4-.65-.82-1.46-.24-2.45.38-.7-.52,1.43.99,2.06,1.62.68.43,2.41,1.42,2,.65-.3.69-.04.96-.34,1.31-1.49-.69-4.4.11-3.52.87,1,.58,1.54,1.28,1.88,2.18,1.07,1.37-2.18,2.59-1.68,1.02.42,1.58-1.35.45-1.88-.63-.3-.1-.74.72.44.77,1.08.24,3.61,1.19,2.48,1.59-1.92.46-4.87-.27-6.56-.55-1.32-1.49-5.8,1.08-8.54,2.71-2.92,9.09-1.16,7.16-6.25.94,1.36,2.82,3.99-.09,8.27-.99,1.46-3.7,2.19-5.3,4.47-1.49,2.11-1.27,8.73-.36,8.12,1.78-1.21,1.93.87,2.78-.59.88-1.58,1.62-1.43,1.19-3.45-.36-1.72-.3-1.32-.41-2.45-.12-1.29,2.95-3.06,2.16-5.17-.57-1.55,1.35.85.05,5.19-.38,1.26-3.65,7.72-.65,8.4,1.54.35.8-2.47,1.58-3.01,1.22-.84,1.98-2.67,1.54-4.83-.5-2.39,1.49-4.24,1.4-4.06-.13.4-1.01,1.96-.61,3.08.44,1.22.05,2.05-.67,3.48-.38.73-.59,1.78-1.33,2.84-.4.57.2.88.85.52.73-.4,1.01-.03.91.8-.16,1.05.57,2.13,1.22-.3.1-.42.49-.38,1.09-.61.47-.18-.77.53-.28,1.16.33.44.71.75,1.03-.94.22-1.19.84-.44,1.35-1.84.3-.87-.06,1.94-1.33,3.12-.64.61-1.58,1.39-2,1.67h-1.84c-.37.1-.64.12-.69,0-.27.08-.58.14-.9.21-.2.07-.35.15-.58.22h-.39c-.77.11-1.55.19-2.36.22-3.44.29-7.85.3-11.83.17-3.21-.47-6.03.34-8.95-.67-.28-.06-.51-.1-.68-.14h-1l.04,4.46c-2.49.09-10.41,1.72-10.41,8.99,0,6.27,5.56,8.25,6.42,8.51l-.04,4.99h.68c2.14,2.01,3.44,2.72,4.21,19.3-6.3.18-11.99-.06-16.54-.97.07,4.24,1.11,87.3,5.24,138.54-.64-.04-1.37-.01-1.9-.16C37.74,245.72,11.38,242.67,0,245.06c4.37,9.53,10.33,31.77,11.79,36.95,9.8.79,20.58,2.06,17.73,2.51-14.16,2.25-21.02,9.76-22.51,11.59-8.45,10.45,5.03,19.75,8.73,34.48,3.89,15.29,4.28,21.94,11.43,25.64,6.29,3.27,18.81,3.38,33.88,2.32,1.45,3.49,2.69,6.82,3.17,8.02,1.78.1,4.86.23,6.51.36-.1-3.41-.22-6.57-.29-9.03.1,0,.2-.02.3-.03.63,19.57,1.06,33.07,1.15,36.14-1.28-.94-2.76-1.22-4.05-.64-.21.12-.29.3-.31.42-.1.38.16.73.55,1.25.58.75,1.34,1.79,1.39,3.2.01.26.03.54.05.8.11,3.63.24,7.75,3.58,8.63.32.13.69.21,1.17.21.03.06.05.15.08.26,0,.11.01.19.01.3.03.21.06.46.1.74.18,1.15.77,2.64,3.2,2.96l.04.03.02-.03h0v.03h.03l.04-.03c2.61-.34,3.08-2.04,3.22-3.24.02-.17.04-.32.05-.46.02-.11.03-.2.04-.29,0-.12.03-.21.04-.27.49,0,.91-.09,1.18-.21,3.37-.89,3.5-5,3.61-8.63.01-.26.02-.54.02-.8.07-1.42.84-2.46,1.38-3.2.39-.52.64-.87.56-1.25-.01-.12-.1-.3-.34-.43-1.2-.55-2.74-.27-4.04.67.02-.87.06-2.63.12-5.16,8.73,11.97,20.9,3.8,47.6,2.96.21,6.67.34,11.12.4,12.69-1.28-.95-2.77-1.23-4.06-.64-.22.12-.3.3-.32.42-.08.38.17.72.57,1.25.55.75,1.32,1.78,1.37,3.19,0,.27.02.53.03.82.11,3.62.24,7.72,3.59,8.61.31.15.69.21,1.17.22.03.06.04.14.08.27,0,.09.01.19.03.29.01.21.04.46.09.74.17,1.16.76,2.66,3.19,2.97h.05s0,0,0,0h.02s.02.01.02.01h.05c2.61-.36,3.08-2.05,3.22-3.26.02-.15.04-.32.05-.46,0-.1.02-.2.03-.29,0-.12.03-.21.05-.27.48-.01.89-.08,1.18-.22,3.36-.89,3.49-4.99,3.6-8.61.02-.29.03-.55.05-.82.05-1.41.81-2.45,1.36-3.19.41-.52.65-.86.56-1.25-.04-.12-.1-.3-.35-.43-1.21-.56-2.74-.26-4.03.68.04-1.54.14-5.9.28-12.47,24.51,1.65,35.61,8.69,43.9-5.13.11,3.55.19,5.98.23,7.07-1.3-.94-2.78-1.22-4.05-.64-.23.12-.3.3-.34.42-.07.38.18.73.57,1.25.57.75,1.32,1.79,1.39,3.2.01.26.01.54.01.8.13,3.63.26,7.75,3.61,8.63.32.13.7.21,1.18.21.01.06.04.15.06.26.03.11.04.19.04.3.01.21.05.46.09.74.19,1.15.76,2.64,3.2,2.96l.02.03.02-.03h.01v.03h.04l.04-.03c2.61-.34,3.08-2.04,3.22-3.24.02-.17.03-.32.04-.46.02-.11.02-.2.04-.29.02-.12.04-.21.05-.27.48,0,.9-.09,1.19-.21,3.36-.89,3.48-5,3.59-8.63.01-.26.02-.54.02-.8.06-1.42.82-2.46,1.39-3.2.38-.52.65-.87.55-1.25-.02-.12-.1-.3-.35-.43-1.2-.55-2.73-.27-4.02.67.05-2.53.26-12.45.59-27.15,1.72-.11,4.18-.22,5.71-.3.52-1.26,1.83-4.85,3.41-8.55,13.63,1,23.63.26,25.14.15,16.28-1.19,16.44-16.03,19.2-24.51,4.22-12.83,11.46-22.69,12.32-25.81,5.55-20.27-25.08-24.92-25.08-24.92.2,0,3.09-.23,3.27-.25,6.53-.51,10.26-1.01,13.73-1.01ZM214.8,58.02c-.43,1.33-1.46,2.5-2.6,3.48.52-.64.98-1.3,1.44-1.99,1.21-1.84,1.82-3.95,2.14-6.03-.13,1.31-.36,2.75-.98,4.54ZM215.69,33.52c-.19-.58-.06-.47,0,0h0ZM213.01,29.99c.32-.31.87-.65,1.53-1.02-.19.33-.36.64-.39.96-.34,1.83-.42,2.49-1.14,2.73-.15.06-1.67.88-2.34,2.51.38-1.7,1.05-3.94,2.34-5.18ZM208.01,42.07c.98-1.96,2.39-3.26,3.99-3.62.67-.14-2.57.72-.73,1.97,1.1.76.94-1.9,2.39-2.84,2.09-1.38,2.16-3.23,2.05-4.04.67,1.94.59,4.89-2.08,6.91-2.64,2.06-2.73,3.05-2.96,4.33-.21,1.29-.11-1.62,4.12-1.83,1.63-.08,1.91-.65,2.52-2.36.6-1.69,1.5-.7,1.42-3.45,0-1.04,1.14,3.91-1.41,4.96-4.17,1.7-1.51,3.23-3.13,3.65-1.3.33-2.86,1.23-.67,3.1,1.53,1.28,1.1,2.81.66,4.07-.02.06-.03.12-.05.16-.03.34-.1.4,0,0,.04-.42,0-1.29-.7-2.2-.76-.95,1.58-1.11-.81-2.64-.77-.49-1.23-1.31-.67-2.03.46-.6-2.78.72-1.78,3.05,0,0,.98,2.45.32,3.24-.62.75.62-.79-.23-1.46-.76-.58-1.33.47-.9,1.33.47.84,1.59,2.57.28,3.8-1.58,1.47-1.55,2.72-1.37,3.34.01,0,.01.02.02.02.36.53.13.46-.02-.02-1.6-2.32,1.26-6.17-.83-9.28-1.44-2.13-.63-5.7.57-8.17ZM205.54,33.08c0-.27.07-.48.72-.98.37-.3.69-.62,1.01-.96-.55.72-1.15,1.37-1.73,1.94ZM208.04,27.72c-.63,2.41-.79,3.63-3.27,5.45-1.07.77-.25,2.25-.92,3.07-1.37,1.66-2.33-.49-2.55,1.57-.05.55-.05,1.73.34,2.92.31.86-.66-.75-.9-3.28-.38-3.95,5.45-3.06,5.41-7.29-.05-4.25-2.36-5.93-.73-8.88,2.13-3.9,2.89-3.8,2.72-5.65-.13-1.85.99,1.27,1.33,5.35.32,4.05-.77,4.32-1.42,6.74ZM213.64,14.96c.26-.11.53-.23.8-.37-1.86.94-3.81,2.68-3.69,5.48.16,3.63-.35,5.25-1.01,6.62.56-1.65.76-3.17.74-3.94-.17-4.36-.38-6.3,3.17-7.8ZM213.93,9.95s.05-.02.08-.04c-1.21,1.49-2.45,1.07-4.28.9,1.46-.24,2.94-.48,4.2-.86ZM200.15,20.9c.39-5.57,3.29-8.2,5.94-8.99,2.58-.76,3.22-.25,5.26.16,1.06.21,1.86-.58,2.19-.96.19-.31.18-.22,0,0-.42.67-.91,1.84-2.24,1.75-1.3-.1-1.53-.24-2.12.49-.77.96-.72.94-3.84,1.52-5.1.96-5.29,7.95-5.18,6.03ZM112.26,47.55c.12,5.87,1.97,10.15,4.31,12.97-7.24-8.34-3.94-20.54-3.94-20.54,2.19-5.92,5.97-9.5,9.83-11.73-4.73,3.07-10.4,8.71-10.2,19.31ZM124.66,45.03c-.41,1.17.06,2.9-.89,4.02-1.8,2.06-1.53,6.04-1.53,6.04-.43-4.46-1.12-3.79-1.04-7.7.06-2.53,1.05-4.35,2.78-6.14,1.44-1.5,1.93-2.34,1.97-3.32.06-1.51,2.73-3.66,2.54-3.5-1.78,1.65.67,2.34-.8,3.3-1.13.75.84,2.35,1.29-.22.31-1.81-.79-1.9.57-3.25,1.38-1.34,2.72-2.46,2.64-4.07-.04-.6.67,3.47-.91,4.85-1.57,1.4-2.24,1.07-2.07,3.1.21,2.27-2.59,1.51-4.55,6.9ZM134.38,41.69c-.48,2.53-1.45,3.13-2.16,4.27-.73,1.16-1.81,2.12-.45,6.9,1.36,4.79-.2,6.28-.41,5.79-.42-.93.12-1-.65-1.44-.48-.26.13,1.71-1.25,3.09-1.07,1.08-.39.24-.18-1.35.2-1.6-.67-1.71-1.54-2.81-.88-1.12,1.33-1.23.15-2.64-1.19-1.41.18-2.63.4-3.47.03-.08.03-.14.03-.19-.06.36-.25,1.45.04,1.89.4.58.21.45.48.95.19.39.08,1.2.39,1.28.7.15.32-1.44.32-1.44-.46-3.48-1.49-6.13.07-8.99,1.26-2.25,4.24-5.38,7.83-7.43-2.78,1.73-2.61,3.08-3.09,5.6ZM139.65,22.14c-.07.32-.51,1.18-1.17,2.24-1.36,2.27-3.42,2.47-5.14,2.31-1.33-.1-2.53-.27-2.85.44-.23.51.28.68.65.62.47-.1,1-.95.81-.45-.72,1.86-2.47,4.47-6.47,6.32-6.97,3.22-4.41,12.22-7.21,16.15,0,0,.56-1.89-.19-2.93-3.25-4.49,1.88-5.9.09-8.75-1.07-1.7-.63-3,.08-4.76,2.07-5.03,7.99-6.84,10.48-7.14,1.76-.2,2.22-.37,4.11-.66,1.79-.3,2.45-1.89,3.64-1.8,2.89.24,3.31-2.32,3.18-1.6ZM148.59,33.08c0-.27.05-.48.7-.98.37-.3.71-.62,1.01-.96-.55.72-1.14,1.37-1.71,1.94ZM156.68,14.96c.26-.11.53-.24.8-.37-1.86.94-3.81,2.68-3.69,5.49.16,3.63-.35,5.25-1.01,6.62.55-1.65.75-3.17.73-3.94-.18-4.36-.39-6.3,3.17-7.8ZM156.96,9.95s.06-.02.09-.04c-1.21,1.49-2.45,1.07-4.27.9,1.47-.24,2.93-.48,4.18-.86ZM143.2,20.9c.38-5.57,3.29-8.2,5.93-8.99,2.57-.76,3.21-.25,5.25.16,1.06.21,1.88-.58,2.2-.96.19-.31.17-.22,0,0-.44.67-.92,1.84-2.25,1.75-1.3-.1-1.52-.24-2.13.49-.77.96-.71.94-3.8,1.52-5.14.96-5.32,7.95-5.2,6.03ZM147.79,33.17c-1.05.77-.24,2.25-.91,3.07-1.38,1.66-2.34-.49-2.56,1.57-.06.55-.06,1.73.35,2.92.29.86-.67-.75-.91-3.28-.35-3.95,5.45-3.06,5.4-7.29-.06-4.25-2.34-5.93-.72-8.88,2.13-3.9,2.88-3.8,2.73-5.65-.16-1.85.99,1.27,1.31,5.35.32,4.05-.77,4.32-1.41,6.74-.64,2.41-.8,3.63-3.29,5.45ZM157.86,58.02c-.47,1.33-1.48,2.5-2.61,3.48.51-.64.98-1.3,1.44-1.99,1.22-1.84,1.83-3.95,2.12-6.03-.11,1.31-.36,2.75-.94,4.54ZM156.05,29.99c.32-.31.87-.65,1.53-1.02-.2.33-.35.64-.4.96-.35,1.83-.41,2.49-1.14,2.73-.15.06-1.67.88-2.32,2.51.36-1.7,1.04-3.94,2.32-5.18ZM153.19,49.27s.98,2.45.34,3.24c-.62.75.62-.79-.24-1.46-.77-.58-1.33.47-.89,1.33.45.84,1.59,2.57.3,3.8-1.59,1.47-1.56,2.72-1.39,3.34l.02.02c.36.53.13.46-.02-.02-1.6-2.32,1.25-6.17-.83-9.28-1.44-2.13-.63-5.7.58-8.17.98-1.96,2.39-3.26,3.98-3.62.68-.14-2.54.72-.71,1.97,1.1.76.93-1.9,2.37-2.84,2.11-1.38,2.18-3.23,2.06-4.04h-.01c-.18-.6-.04-.49.01,0,.66,1.94.58,4.89-2.07,6.91-2.66,2.06-2.73,3.05-2.96,4.33-.21,1.29-.11-1.62,4.12-1.83,1.64-.08,1.9-.65,2.52-2.36.61-1.69,1.49-.7,1.42-3.45,0-1.04,1.12,3.91-1.42,4.96-4.19,1.7-1.5,3.23-3.11,3.65-1.31.33-2.88,1.23-.68,3.1,1.52,1.28,1.1,2.81.67,4.07-.01.06-.03.12-.06.16-.02.34-.11.4,0,0,.04-.42,0-1.29-.7-2.2-.75-.95,1.58-1.11-.8-2.64-.77-.49-1.23-1.31-.66-2.03.45-.6-2.8.72-1.8,3.05ZM52.84,47.55c.09,5.87,1.95,10.15,4.3,12.97-7.25-8.34-3.96-20.54-3.96-20.54,2.19-5.92,5.98-9.5,9.83-11.73-4.72,3.07-10.38,8.71-10.18,19.31ZM65.24,45.03c-.43,1.17.06,2.9-.92,4.02-1.78,2.06-1.5,6.04-1.5,6.04-.44-4.46-1.13-3.79-1.05-7.7.06-2.53,1.06-4.35,2.77-6.14,1.46-1.5,1.93-2.34,1.99-3.32.05-1.51,2.71-3.66,2.54-3.5-1.78,1.65.66,2.34-.82,3.3-1.12.75.85,2.35,1.29-.22.32-1.81-.79-1.9.59-3.25,1.37-1.34,2.72-2.46,2.63-4.07-.02-.6.68,3.47-.91,4.85-1.57,1.4-2.25,1.07-2.08,3.1.2,2.27-2.6,1.51-4.53,6.9ZM74.96,41.69c-.49,2.53-1.45,3.13-2.17,4.27-.73,1.16-1.8,2.12-.45,6.9,1.37,4.79-.17,6.28-.4,5.79-.41-.93.12-1-.65-1.44-.47-.26.14,1.71-1.26,3.09-1.05,1.08-.39.24-.19-1.35.22-1.6-.64-1.71-1.53-2.81-.87-1.12,1.33-1.23.15-2.64-1.17-1.41.2-2.63.4-3.47.03-.08.04-.14.04-.19-.07.36-.26,1.45.05,1.89.39.58.19.45.46.95.19.39.08,1.2.39,1.28.73.15.34-1.44.34-1.44-.45-3.48-1.5-6.13.09-8.99,1.24-2.25,4.22-5.38,7.82-7.43-2.8,1.73-2.6,3.08-3.09,5.6ZM80.24,22.14c-.08.32-.53,1.18-1.18,2.24-1.37,2.27-3.42,2.47-5.13,2.31-1.34-.1-2.55-.27-2.86.44-.23.51.27.68.65.62.47-.1,1.01-.95.8-.45-.73,1.86-2.46,4.47-6.47,6.32-6.97,3.22-4.41,12.22-7.23,16.15,0,0,.58-1.89-.18-2.93-3.25-4.49,1.87-5.9.1-8.75-1.09-1.7-.64-3,.08-4.76,2.06-5.03,7.99-6.84,10.46-7.14,1.78-.2,2.24-.37,4.12-.66,1.8-.3,2.43-1.89,3.63-1.8,2.9.24,3.3-2.32,3.2-1.6ZM89.16,33.08c0-.27.03-.48.7-.98.37-.3.7-.62,1.03-.96-.56.72-1.16,1.37-1.73,1.94ZM97.25,14.96c.25-.11.52-.23.78-.36-1.85.94-3.78,2.68-3.67,5.48.13,3.63-.36,5.25-1.02,6.62.55-1.65.77-3.17.74-3.94-.19-4.36-.39-6.3,3.17-7.8ZM97.14,11.11c.2-.31.18-.22,0,0h0ZM97.53,9.95s.04-.02.1-.04c-1.21,1.49-2.46,1.07-4.29.9,1.47-.24,2.96-.48,4.19-.86ZM83.76,20.9c.38-5.57,3.28-8.2,5.92-8.99,2.6-.76,3.23-.25,5.27.16,1.02.2,1.83-.54,2.15-.93-.4.67-.9,1.81-2.19,1.72-1.32-.1-1.54-.24-2.14.49-.79.96-.72.94-3.82,1.52-5.12.96-5.32,7.95-5.2,6.03ZM87.46,36.24c-1.38,1.66-2.34-.49-2.57,1.57-.05.55-.05,1.73.35,2.92.29.86-.67-.75-.9-3.28-.38-3.95,5.45-3.06,5.4-7.29-.06-4.25-2.34-5.93-.74-8.88,2.14-3.9,2.89-3.8,2.74-5.65-.14-1.85.99,1.27,1.32,5.35.32,4.05-.77,4.32-1.41,6.74-.65,2.41-.8,3.63-3.28,5.45-1.06.77-.25,2.25-.91,3.07ZM98.42,58.02c-.45,1.33-1.47,2.5-2.61,3.48.5-.64.96-1.3,1.44-1.99,1.22-1.84,1.83-3.95,2.12-6.03-.12,1.31-.36,2.75-.96,4.54ZM99.31,33.52c-.19-.58-.06-.47,0,0h0ZM96.61,29.99c.32-.31.89-.65,1.55-1.02-.2.33-.37.64-.42.96-.33,1.83-.42,2.49-1.13,2.73-.16.06-1.67.88-2.33,2.51.38-1.7,1.04-3.94,2.33-5.18ZM91.89,59.53c.37.52.14.46,0,0h0ZM93.76,49.27s.99,2.45.33,3.24c-.62.75.63-.79-.24-1.46-.76-.58-1.33.47-.89,1.33.47.84,1.59,2.57.28,3.8-1.58,1.47-1.55,2.72-1.37,3.34-1.6-2.32,1.26-6.17-.83-9.28-1.44-2.13-.66-5.7.56-8.17.98-1.96,2.39-3.26,3.98-3.62.67-.14-2.55.72-.73,1.97,1.09.76.94-1.9,2.38-2.84,2.09-1.38,2.16-3.23,2.06-4.04.66,1.94.57,4.89-2.09,6.91-2.64,2.06-2.73,3.05-2.95,4.33-.22,1.29-.12-1.62,4.11-1.83,1.64-.08,1.91-.65,2.53-2.36.6-1.69,1.5-.7,1.44-3.45-.03-1.04,1.11,3.91-1.43,4.96-4.19,1.7-1.51,3.23-3.13,3.65-1.31.33-2.87,1.23-.67,3.1,1.5,1.28,1.1,2.81.66,4.07-.02.06-.04.12-.06.16-.03.34-.12.4,0,0,.05-.42,0-1.29-.7-2.2-.75-.95,1.58-1.11-.81-2.64-.78-.49-1.22-1.31-.64-2.03.44-.6-2.81.72-1.81,3.05ZM244.42,274.39c-5.36,1.11-10.18,1.93-15.19,3.98l-1.48-.67c5.3-1.65,11.22-2.64,16.67-3.31ZM223.53,276.13l-1.59-.79c7.16-3.03,14.81-3.4,22.26-4.28-7.37,1.34-14.01,1.75-20.67,5.08ZM231.19,268.87c-4.37,1.08-9,2.22-12.46,4.83l-1.28-.75c4.05-2.77,9.12-3.84,13.59-4.72,4.53-.8,9.08-1.3,13.65-1.64-4.53.56-9.07,1.27-13.5,2.28ZM196.4,356.89c.25.03.5.06.76.09-.2,21.31-.33,35.07-.33,35.44,0,.53,0,.8-.3.84-.29,0-.39-.23-.39-.78,0-.36.1-14.18.26-35.59ZM193.65,356.52c.02,2.67.04,5.23.06,7.67-.21-.25-.46-.49-.74-.75-.03-2.23-.05-4.58-.08-7.03.25.04.5.07.75.11ZM186.44,355.5c.05,1.44.1,2.85.14,4.23-.11-.05-.22-.09-.33-.14-.02-.48-.05-2.75-.07-4.12.09.01.17.02.26.03ZM188.77,360.74c-.05-1.6-.09-3.26-.13-4.96.26.04.51.07.76.11.04,1.8.08,3.55.12,5.24-.24-.13-.49-.26-.75-.39ZM188.97,351.08c-1.45-1-2.52-.11-2.39-4.86.12-3.55-.78-3.19-2.02-3.78-1.24-.6-2.78-.9-2.13-1.79.73-1.01.29.54,3.47.18,3.17-.35,3.97-3.95,3.97-5.44s.89-4.67-3.43-5.52c-4.32-.85-3.32-.1-3.32.74,0,.61-.95,4.88-1.39,7.19-.44,2.35-1.4,10.25-1.45,10.84-.05.59-.68.79.1,1.14.8.36,1.95,1.04.97,1.1-1.02.04-4.33-.45-5.13-.45s-2.27.12-1.89-.95c.26-.67,3.29.4,3.38-.35.21-1.49,1.53-12,1.79-14.64.22-2.4.79-4.97,0-5.66-.79-.72-4.06-.62-4.37-.1-.6.97-1.84,7.94-2.28,10.21-.43,2.22-1.64,8.99-1.23,9.86.38.83,1.54.14,1.57.78.06.65-.33.45-1.53.36-1.2-.12-3.43-.36-4.33-.36s-.98-.78-.4-.94c.61-.14,1.59.09,1.79-.35.65-1.35,1.55-8.65,1.79-10.68.34-2.87,1.18-8.34,1.03-8.99-.14-.64-2.72.11-2.72-.64s.83-.49.83-.49c4.18,0,8.61.19,12.08.69,3.47.5,6.75.41,8.74,1.88,1.98,1.51,4.38,6.48.59,9.44-3.76,2.98-4.61,1.7-4.72,2.54-.05.36.65.04,1.7.36,1.03.28,1.94,2.28,1.68,3.96-.26,1.7-.5,2.99.2,3.64.68.65,1.68.55,2.34.24.64-.29,1.23.09.84.35-.39.24-2.69,1.49-4.12.5ZM159.42,326.54c-.6,0-1.34-.4-1.44.34-.13.99-1.69,18.98-1.8,19.87-.09.89,2.33.95,3.18.95s.45.47.4.72c-.05.25-2.73-.14-4.38-.14s-4.01.55-3.96-.15c.04-.84,1.24-.59,2.02-.94.69-.3.71-2.04.86-4.07.13-2.04.89-15.8.89-16.5s-.07-.83-.94-.65c-.89.2-1.1-.13-1.33-.65,0,0-.12-.56.38-.59.65-.05,3.33,0,4.52.06,1.24.04,2.59-.3,6.37,1.78,3.94,2.19,4.18,5.47,3.22,9.21-.94,3.7-5.41,5.1-7.5,5.71-1.74.48-2.37.73-2.43.39-.11-.49-.16-1.35.15-1.34,1.99.1,3.47-.75,4.18-1.13.69-.42,3.07-1.35,3.16-7.06.11-5.71-4.97-5.81-5.55-5.81ZM139.49,330.36c.61,2.24,4.28,2.73,6.07,3.92,0,0,5.87,3.68,4.37,8.29-1.5,4.63-4.91,5.14-6.11,5.27-1.19.14-4.66-.24-5.32-2.87-.2-.81-1.14-.55-.4,1.08.18.38-.55,1.36-.81,1.88-.24.56-.49-.04-.62-1.18-.16-1.14-.16-6.56-.16-7.81s.4-.63.7-.14c.3.48.59.14.68,1.44.12,1.29,1.1,3.61,1.7,4.07.59.46,2.89,3.67,6.56,1.3,2.69-1.76,1.89-5.63.89-6.96,0,0-2.03-1.48-4.28-2.18-2.24-.69-5.96-2.85-5.56-6.28.45-3.71,3.07-5.06,4.72-5.45,1.63-.41,3.81-.73,6.66,1.69.98.84.68.1.73-.7.04-.8.04-1.54.65-1.59.49-.02.84.49.84.99s-.3,8.25-.39,8.59c-.09.35-.69.76-.93-.29-.24-1.05-.51-4.82-1.69-5.86-1.19-1.05-3.32-2.65-5.8-1.29-2.5,1.33-2.83,2.83-2.5,4.07ZM140.39,363.39c.03-3.44.06-7.05.08-10.82.26,0,.53.01.79.02-.03,3.79-.06,7.41-.09,10.86-.27-.02-.53-.04-.78-.06ZM132.58,363.26c-.08-3.42-.17-7.02-.25-10.76.26,0,.51,0,.77-.01.08,3.74.16,7.34.23,10.76-.25,0-.51,0-.76,0ZM116,329.82c0-1.09.3-3.18-.29-3.24-.59-.04-1.5.7-2.03.21-.55-.5-.2-1.16-.2-1.16,1.83-.08,5.21-.49,7.19-.69,1.99-.19,4.68-.38,5.86-.38s2.55-.26,2.55.28,0,6.66-.04,7.01c-.05.36-.74-.2-1.05-.75-.3-.53-1.09-4.12-1.29-4.56-.19-.44-1-.24-1.53-.5-.55-.24-5.68.29-6.12,1.24-.45.95-.21,2.73-.21,4.04s-.15,3.42.1,3.81c.24.39.5.49,1.46.49s5.56-.2,6.05-.6c.49-.38.84-1.03.89-1.49.05-.45.59-.09.85,1.4.24,1.49,0,2.84-.31,3.23-.28.39-.93-.97-1.18-1.29-.25-.34-2.49.44-3.63.48-1.14.06-2.53-.23-3.08.11-.55.33-.89.33-.94,2.03-.06,1.7,0,5.56.05,6.13.05.54.15.69,1.3.69s5.66-.09,6.23-.65c.66-.6.95-1.52,1.41-2.88.49-1.5,1.49-1.84,1.49-1.39s.49,4.77.49,5.45-1.89.4-3.48.65c-1.58.25-4.61.49-6.25.69-1.52.2-4.17.56-5.01.46-.84-.1-1.4-.7-.5-1,.9-.3,2.04.29,1.93-1.52-.09-1.85-.69-15.21-.69-16.3ZM107.55,327.28c-.5.03-.54.36-.56,1.4-.03,1.03.99,12.73,1.06,14.63.07,1.89-.02,4.21.52,4.29.75.1,2.19-.1,2.23.45.03.52-.06.63-.8.69-.43.05-1.76.22-3.13.35-1.23.13-2.51.22-2.94.25-.79.09-2.38.3-2.38-.21,0-.83,1.91-1.05,3.18-1.23,1.45-.19.4-3.89.26-5.07-.22-1.9-.86-10.61-.88-11.43-.04-.82-.08-2.71-.18-3.52-.03-.29-3.3.17-3.33.5-.05.4-.09,3.84-.24,3.89-.54.17-1.79-.66-1.89-1.16-.09-.5.07-2.36.07-3.68,0,0-.03-.45.36-.54.19-.04,1.59-.13,2.3-.26.24-.05,2.11-.43,4.21-.66,2.67-.33,5.73-.5,6.04-.5.57,0,.43.5.49,1.16.08.66.21,2.78.24,3.47.03.7,0,1.1-.24,1.07-.22-.04-.9-.47-1.08-.8-.2-.33-.17-2.77-.17-3s-2.65-.11-3.15-.08ZM85.17,320.57c.12-5.38.24-10.94.38-16.62,15.45,4.11,33.12,5.66,43.01,6.17.11,2.31.22,4.6.33,6.86-15.31.47-29.96,2.06-43.71,3.59ZM95.09,329.97s1.56,14.7.69,16.75c-.85,2.06-2.85,3.74-4.89,3.98-1.64.17-5.01.42-6.4-4.15,0,0-1.01-4-1.4-6.98-.53-4.19-.91-9.21-1.57-9.29-.69-.08-2.35-.27-2.87-.32-.5-.1-.54-1.13.12-1.13,1.15,0,4.56.04,5.94-.05,1.4-.1,2.42-.37,2.55-.13.13.22.41.78-.4.98-.8.21-1.55,0-1.55.37s.31,5.6.34,6.86c.02,1.26.56,7.05,1.04,8.68,0,0,.9,3.32,2.55,3.75,2.53.61,4.57-.85,4.38-4.44-.21-3.88-.5-6.46-.7-8.58-.21-2.12-.5-6.72-.52-7.27-.04-.52-1.5-.15-2.13-.12-.72.03-.52-.43-.52-.86,0-.38.21-.65.76-.59.53.08,1.35-.03,2-.1.67-.06,3.64-.13,4.18-.19.54-.07.63.1.65.52.04.5-.24.44-.6.54-.32.1-.79.2-1.25.26,0,0-.59-.1-.43,1.53ZM77.16,357.14c.25-.03.5-.07.76-.1.01,1.91.03,3.75.04,5.54-.26.19-.5.37-.73.56-.02-1.92-.05-3.93-.07-6ZM80.64,356.69c.25-.03.5-.06.76-.09-.01,1.37-.03,2.7-.04,4-.26.13-.51.25-.76.38.01-1.39.02-2.82.03-4.29ZM31.08,313.25c2.7-1.58,5.57-2.77,8.49-3.77-2.82,1.22-5.6,2.61-8.13,4.35-2.38,1.68-5.18,3.49-5.34,6.1l-1.14-.33c.67-3.77,3.61-4.7,6.12-6.35ZM21.66,318.21l-1.2-.72c.6-3.71,3.58-5.24,6.1-6.93,2.68-1.64,5.57-2.84,8.5-3.86-2.85,1.23-5.64,2.64-8.12,4.45-2.38,1.73-5.16,4.34-5.29,7.07ZM36.01,315.51c2.53-1.4,5.2-2.55,7.87-3.58-4.9,2.57-10.7,4.78-12.83,9.66l-1.13-.33c1.37-3.02,3.62-4.28,6.09-5.75ZM80.9,321.04c.04-5.25.08-10.66.11-16.21.31-.21.62-.42.91-.65-.07,5.74-.12,11.34-.17,16.76-.28.03-.57.06-.85.09ZM71.63,307.12c-3.1,1.56-6.38,2.74-9.72,3.32,3.33-.77,6.5-2.1,9.54-3.84,2.28-1.36,4.57-2.92,6.44-4.99.31.11.62.22.93.32-2.13,2.3-4.65,3.83-7.18,5.19ZM55.37,281.08c-2.19,1.32-4.46,2.46-6.77,3.49,2.28-1.35,4.48-2.81,6.57-4.44.07.32.13.65.2.95ZM56.24,284.43c.09.29.18.59.27.86-3.14,1.63-6.4,2.92-9.66,4.14,3.21-1.51,6.4-3.1,9.4-5ZM58.18,288.8c.15.23.29.45.45.68-3.6,2.18-7.54,3.43-11.35,4.91,3.68-1.72,7.52-3.26,10.9-5.58ZM56.11,295.17c1.61-.91,3.28-1.87,4.73-3.09.19.19.39.38.59.57-1.61,1.26-3.39,2.11-5.12,3-2.66,1.25-5.38,2.27-8.12,3.17,2.7-1.07,5.36-2.25,7.92-3.65ZM63.86,294.65c.24.18.48.35.73.53-4.36,3.54-9.34,5.53-14.24,7.44,4.69-2.12,9.48-4.43,13.51-7.96ZM62.78,300.83c1.68-1.09,3.44-2.23,4.9-3.73.25.14.51.28.77.42-1.67,1.67-3.61,2.7-5.48,3.79-2.61,1.4-5.3,2.54-8.04,3.42,2.7-1.05,5.32-2.37,7.86-3.9ZM66.43,303.82c2.13-1.18,4.34-2.44,6.15-4.29.3.13.59.26.89.38-2.08,2.11-4.51,3.29-6.88,4.45-2.94,1.34-5.97,2.34-9.03,3.02,3.05-.87,6.01-2.07,8.87-3.57ZM54.46,276.27h-.02c-8.68-2.63-17.19-4.48-26.25-5.47,8.75.52,17.46,1.9,26.02,3.99.08.51.16.99.24,1.48ZM50.27,277.96l-1.7.86c-6.88-1.93-13.78-2.85-20.92-4.05,7.23.75,15.4,1.67,22.61,3.19ZM41.56,317.16c2.58-1.13,5.25-1.95,7.96-2.73-2.62,1-5.23,2.05-7.67,3.33-2.34,1.29-4.94,2.73-5.36,5.09l-1.26-.27c1.02-3.28,3.87-4.25,6.33-5.42ZM59.93,313.19c2.9-.95,6.12-1.89,9.29-2.96.13,4.09.26,8.09.39,12-10.54,1.05-20.43,1.77-29.5,1.49-3.63-4.19,10.96-7.67,19.82-10.54ZM72.05,322c-.1-4.11-.2-8.33-.31-12.65.29-.11.58-.21.86-.32.09,4.4.19,8.69.29,12.87-.28.03-.56.06-.84.09ZM76.76,321.49c-.06-4.59-.11-9.31-.16-14.15.31-.15.62-.29.93-.44.04,4.95.07,9.79.11,14.5-.3.03-.58.06-.88.09ZM132.09,310.27c.08,2.24.15,4.45.23,6.63-.29,0-.59.01-.88.02-.08-2.19-.16-4.42-.24-6.68.31.01.61.02.9.03ZM140.73,316.87c.02-2.19.04-4.42.07-6.67.29-.01.59-.03.9-.04-.03,2.27-.07,4.51-.1,6.72-.29,0-.58,0-.86-.01ZM137.19,310.32c.02,2.2.05,4.37.08,6.52-.31,0-.62,0-.93,0-.04-2.14-.08-4.31-.11-6.5.29,0,.61,0,.97-.02ZM136.85,363.26c-.04-3.43-.07-7.02-.11-10.77.26,0,.53,0,.79.01.03,3.74.06,7.33.08,10.77-.25,0-.51-.01-.77-.01ZM145.18,316.98c.07-2.31.15-4.65.22-7.02,10.06-.62,25.58-2.15,39.37-5.73.18,5.5.35,10.86.52,16.07-12.87-1.41-26.68-2.87-40.12-3.32ZM187.77,320.57c-.14-5.51-.28-11.2-.43-17.04.3-.08.59-.17.88-.25.12,5.97.25,11.77.38,17.38-.28-.03-.56-.06-.83-.09ZM192.51,321.1c-.06-4.92-.12-9.98-.18-15.17.31.16.62.31.94.46.04,5.06.08,10,.12,14.8-.29-.03-.58-.06-.87-.09ZM196.75,307.81c.29.1.58.21.88.31-.04,4.62-.09,9.13-.13,13.52-.29-.03-.57-.06-.86-.09.04-4.46.07-9.04.11-13.73ZM201.17,309.24c3.69,1.09,7.68,2.08,11.52,3.15,11.89,3.31,21.82,7.98,19.92,10.16-.25.3-.47.37-.84.43-7.62,1-18.43.27-30.89-.99.09-4.15.19-8.4.29-12.74ZM224.76,312.95c-2.9-1.1-5.74-1.8-5.73-1.84.04.03-12.53-3.44-17.75-6.65,0,0,0,0,0,0,5.52,2.14,18.13,5.4,18.17,5.44,0,0,2.82.71,5.86,1.86,2.92,1.03,8.33,2.93,10.06,7.68-3.15-4.18-7.66-5.42-10.62-6.49ZM223.39,308.35c-3.57-1.18-11.61-2.17-16.32-6.31,6.37,3.16,13.4,4.19,16.89,5.13,3.47.95,11.25,2.73,14.34,9.2-4.63-5.66-11.35-6.84-14.9-8.02ZM229.01,305.73c-3.56-1.23-11.65-2.28-16.36-6.6,6.39,3.31,13.45,4.39,16.93,5.38,3.49.99,11.3,2.84,14.4,9.61-4.66-5.93-11.38-7.15-14.97-8.4ZM216.93,269.81v-.03c.05-.51.11-1.02.17-1.54,9.06-4.01,18.83-5.11,28.43-6.11-9.79,1.45-19.94,3.13-28.6,7.68ZM230.81,260.18c-4.7,1.23-9.68,2.49-13.39,5.3.06-.56.12-1.13.18-1.7,4.07-2.43,8.63-3.27,13.05-4.24,5-.97,10.06-1.63,15.14-1.9-5.06.5-10.09,1.37-14.98,2.55ZM231.9,255.2c-4.9,1.22-10.03,2.58-13.98,5.49.05-.55.11-1.1.16-1.66,4.27-2.56,9.02-3.53,13.69-4.5,5.16-.96,10.37-1.55,15.61-1.75-5.22.42-10.4,1.22-15.48,2.41ZM232.49,249.64c5.37-.98,10.85-1.47,16.28-1.22-5.44-.03-10.86.67-16.14,1.87-5.01,1.22-10.12,2.8-14.26,5.68.05-.54.1-1.09.15-1.64,4.35-2.52,9.19-3.74,13.98-4.69ZM198.18,110.8c.05-5.43.07-8.46.07-8.46,0-5.07,4.72-6.05,4.74-1.93,0,0,0,.06-.02,1.09,0-3.57-3.33-2.28-3.33,1.41,0,0-.02,2.87-.08,8.01-.46-.03-.91-.07-1.37-.11ZM190.08,110.04c-.07-5.99-.11-9.37-.11-9.37,0-5.07,6.12-4.84,6.14-.73,0,0,0,.54-.02,1.56-.45-4.15-4.42-3.45-4.42-.1,0,0,.01,3.15.05,8.8-.55-.06-1.09-.11-1.64-.17ZM169.22,47.55c.12,5.87,1.97,10.15,4.31,12.97-7.23-8.34-3.94-20.54-3.94-20.54,2.19-5.92,5.97-9.5,9.82-11.73-4.72,3.07-10.38,8.71-10.19,19.31ZM175.24,49.77s.56-1.89-.2-2.93c-3.24-4.49,1.88-5.9.1-8.75-1.08-1.7-.66-3,.07-4.76,2.07-5.03,7.99-6.84,10.48-7.14,1.76-.2,2.22-.37,4.11-.66,1.79-.3,2.43-1.89,3.63-1.8,2.89.24,3.3-2.32,3.18-1.6-.07.32-.53,1.18-1.17,2.24-1.37,2.27-3.41,2.47-5.13,2.31-1.34-.1-2.54-.27-2.85.44-.22.51.28.68.66.62.45-.1,1.01-.95.8-.45-.72,1.86-2.47,4.47-6.47,6.32-6.97,3.22-4.41,12.22-7.21,16.15ZM181.63,45.03c-.41,1.17.05,2.9-.91,4.02-1.79,2.06-1.51,6.04-1.51,6.04-.43-4.46-1.13-3.79-1.05-7.7.05-2.53,1.05-4.35,2.78-6.14,1.45-1.5,1.93-2.34,1.97-3.32.06-1.51,2.71-3.66,2.54-3.5-1.78,1.65.66,2.34-.8,3.3-1.13.75.86,2.35,1.29-.22.32-1.81-.79-1.9.57-3.25,1.38-1.34,2.72-2.46,2.65-4.07-.03-.6.66,3.47-.91,4.85-1.58,1.4-2.25,1.07-2.08,3.1.2,2.27-2.6,1.51-4.54,6.9ZM184.71,56.14c-.89-1.12,1.32-1.23.14-2.64-1.19-1.41.19-2.63.4-3.47.01-.08.04-.14.05-.19.01-.13.03-.17,0,0-.07.36-.26,1.45.03,1.89.39.58.2.45.46.95.19.39.09,1.2.4,1.28.71.15.33-1.44.33-1.44-.46-3.48-1.49-6.13.08-8.99,1.25-2.25,4.23-5.38,7.82-7.43-2.79,1.73-2.6,3.08-3.08,5.6-.49,2.53-1.45,3.13-2.16,4.27-.74,1.16-1.8,2.12-.44,6.9,1.35,4.79-.21,6.28-.42,5.79-.42-.93.11-1-.65-1.44-.49-.26.13,1.71-1.25,3.09-1.07,1.08-.4.24-.2-1.35.21-1.6-.66-1.71-1.52-2.81ZM185.86,63.85c-.4-.65-.82-1.46-.26-2.45.39-.7-.51,1.43.99,2.06,1.17.49.88,1.54,1.01,1.92h-1.11c.42-.97-.34-1.04-.63-1.53ZM174.66,86.23v-.24h-.81c-.45,0-1.66-.54-2.82-1.72-.9-.89-2.4-2.84-2.38-5.63.04-2.58,1.23-4.3,2.67-5.44,2.34-1.72,5.4-2.18,6.49-2.18h28.08c2.02,0,4.9.54,6.98,2.07,1.47,1.21,2.64,3,2.67,5.54.02,2.81-1.5,4.73-2.38,5.65-1.17,1.18-2.39,1.72-2.85,1.72h-.78v.23h-34.85ZM182.3,102.34c0-5.07,4.71-6.05,4.73-1.93,0,0-.02,0-.02,1.04,0-3.52-3.33-2.39-3.33,1.45,0,0,.06,2.29.15,6.43-.46-.05-.91-.11-1.37-.17-.12-4.4-.16-6.82-.16-6.82ZM142.21,103.91c0-1.03.01-1.57.01-1.57,0-5.07,4.71-6.05,4.75-1.93,0,0,0,.06-.04,1.09,0-3.57-3.3-2.28-3.3,1.41,0,0,0,.4-.01,1.15-.48-.05-.95-.1-1.4-.14ZM133.98,103.54c-.02-1.86-.03-2.87-.03-2.87,0-5.07,6.12-4.84,6.15-.73,0,0-.01.54-.02,1.56-.45-4.15-4.45-3.45-4.45-.1,0,0,0,.73.02,2.11-.09,0-.19,0-.27,0-.43,0-.91.01-1.39.03ZM118.64,86.23v-.24h-.8c-.45,0-1.68-.54-2.83-1.72-.9-.89-2.41-2.84-2.39-5.63.03-2.58,1.23-4.3,2.67-5.44,2.35-1.72,5.41-2.18,6.51-2.18h28.07c2.01,0,4.89.54,6.98,2.07,1.48,1.21,2.64,3,2.66,5.54.02,2.81-1.49,4.73-2.39,5.65-1.15,1.18-2.39,1.72-2.84,1.72h-.79v.23h-34.85ZM126.27,102.34c0-5.07,4.71-6.05,4.74-1.93,0,0-.02,0-.03,1.04,0-3.52-3.31-2.39-3.31,1.45,0,0,0,.39.02,1.11-.45.05-.92.1-1.38.15-.03-1.19-.05-1.83-.05-1.83ZM82.44,110.11c.04-4.99.07-7.76.07-7.76,0-5.07,4.69-6.05,4.71-1.93,0,0,0,.06-.02,1.09,0-3.57-3.32-2.28-3.32,1.41,0,0-.03,2.52-.07,7.05-.46.05-.92.1-1.38.16ZM74.34,110.93c-.07-6.56-.12-10.25-.12-10.25,0-5.07,6.12-4.84,6.15-.73,0,0,0,.54-.03,1.56-.46-4.15-4.43-3.45-4.43-.1,0,0,.02,3.35.07,9.37-.55.05-1.1.1-1.64.15ZM58.91,86.23v-.24h-.79c-.47,0-1.69-.54-2.85-1.72-.9-.89-2.41-2.84-2.38-5.63.03-2.58,1.23-4.3,2.67-5.44,2.34-1.72,5.41-2.18,6.5-2.18h28.07c2.03,0,4.89.54,6.98,2.07,1.48,1.21,2.64,3,2.67,5.54.02,2.81-1.49,4.73-2.39,5.65-1.16,1.18-2.38,1.72-2.84,1.72h-.8v.23h-34.85ZM66.54,102.34c0-5.07,4.7-6.05,4.74-1.93,0,0,0,0-.03,1.04,0-3.52-3.3-2.39-3.3,1.45,0,0,.06,3.03.18,8.49-.45.03-.9.05-1.35.08-.15-5.85-.23-9.12-.23-9.12ZM83.25,152.05c16.96,18.66,34.72,37.66,51.41,41.52,14.16,2.85,22.6-7.29,20.62-13.77-31.46,0-26.3-40.57-35.69-52.06,35.41,10.57,52.33,40.57,40.86,51.7,1.4,3.97-2.07,10.33-2.56,11.6,10.2-4.75,15.45-8.13,19.11-12.98-5.73-29.73,18.36-37.46,23.47-56.01,18.64,36.34-2.9,63.18-19.02,60.79-4.84,4.11-12.55,8.93-15.46,10.73,4.09.32,7.53,1.04,11.12,2.62,27.46-6.74,31.84,37.08,25.57,55.42-3.58-6.84-9.32-11.2-15.36-17.15-14.56-14.38-14.88-16.16-14.19-34.5-10.8-4.95-28.24.89-38.73,7.53-12.91,8.17-28.61,10.65-34.02,5.95,1.58-2.69,1.03-9.89-.3-13.49-6.73-18.24-32.11-22.5-34.89-41.53-2.17,2.16-10.52,26.67,5.36,53.42,8.74,12.12,19.12,12.19,23.88,10.32,3.49.5,5.76.79,9.02.79-2.98,1.38-8.23,3.27-12.09,7.62-13.88-3.06-23.19,14.28-22.21,28.76,1.04,15.04,9.72,30.73,15.87,31.61-1.7-11.98,10.74-26.82,14.86-36.85,2.28-5.56,1.29-13-1.08-17.36,2.67-2.38,7.13-7.63,15.44-11-4.98,5.21-4.83,14.01-4.58,17.31-10.86,12.23,6.47,47.51,50.3,49.3-8.93-7.43-11.42-24.69-20.13-40.44-5.66-10.23-12.4-11.81-21.02-12.68-1.39-3.98,3.08-16.85,15.36-17.06,11.59-.2,19.84,7.53,30.63,17.93,10.98,10.57,41.31,42.2,44.97,46.06-11.17,18.1-64.17,20.5-73.65,20.62,0,0,0-.01,0-.02h-2.2c-11.94-.27-66.28-3.43-74.33-23.12-8.32-20.32-10.19-158.62-10.33-169.17,5.74,6.88,19.88,22.09,33.96,37.59ZM35.85,249.18c5.32.9,10.63,1.64,15.86,3.46.04.48.08.97.12,1.45-5.01-2.05-10.67-3.13-16.11-4.25-5.95-1.08-11.95-1.97-17.99-2.21,6.04,0,12.1.69,18.12,1.56ZM52.09,256.86c.04.46.09.9.13,1.35-10.21-2.98-21.26-4.43-31.97-6.08,10.67,1.24,21.23,2.13,31.84,4.73ZM52.54,261.5c.05.46.1.93.14,1.38-9.07-2.61-18.5-4.42-27.94-5.46,9.34.61,18.61,1.92,27.8,4.08ZM53.01,265.77c.05.45.11.89.16,1.33-9.03-2.11-18-4.31-27.24-5.31,9.13.57,18.13,2.31,27.08,3.98ZM53.63,270.72c.06.48.13.94.2,1.41-8.56-3.09-17.77-4.86-26.96-5.57,9.01.3,18.02,1.53,26.76,4.16ZM27.66,278.62c4.34.5,8.7.25,13.07,1.46l-.45,1.29c-3.9-1.55-8.38-1.82-12.62-2.75ZM11.07,300.74c3.39-5.46,9.37-7.12,14.46-9.53-4.81,2.62-12.7,7.8-15.08,12.51l.62-2.98ZM11.02,306.98c1.27-3.45,3.94-5.15,6.43-6.96,2.6-1.71,5.43-3.01,8.35-3.93-2.85,1.14-5.54,2.63-7.94,4.48-2.29,1.81-5.74,5.43-6.4,7.92l-.44-1.51ZM14.1,312.46l-1.12-1c1.11-3.5,4.47-5.91,6.99-7.64,2.62-1.62,5.45-2.9,8.35-3.89-2.81,1.22-5.52,2.66-7.97,4.46-2.33,1.75-5.71,5.5-6.24,8.06ZM16.29,314.76c2.46-6.47,9.21-8.75,14.69-10.85-5.36,2.43-12.1,5.75-13.55,11.59l-1.13-.74ZM65.35,353.01c-1.08,0-4.63-.08-5.15-3.41-.54-3.31-.24-4.23-1.89-4.27-1.69-.03-4.7-.2-4.7-1.26,0-.56,1.88-.29,2.69-.52.72-.22,3.39-1.42,2.57-6.79-.75-4.99-4.74-4.49-5.66-4.49-1.19,0-2.32.04-2.27.39.04.38,1.79,12.71,1.95,14.76.13,1.56.48,4.41.54,5.18.03.52.05.52.46.54.44.02,1.35.11,2.44.06.78-.01.89,1,.07,1,0,0-5.61-.26-6.19-.28-.51,0-.59-1.1.18-1.09.46.03.76.1.71-.37-.06-.5-2.69-18.04-2.86-19.3-.13-1.11-.37-.86-1.28-.73-.55.07-2.52.2-3.53.12-.36-.02-.12.65-.09,1.4.01.79,2.27,17.85,2.34,18.33.07.52,1.26.42,1.73.43.54.01.6.99-.08.99,0,0-5.02-.02-6.12-.14-.98-.1-.68-1.18-.06-1.16.8.04,2.14-.32,2.05-.98-.15-1.41-.47-2.62-.62-3.67-.21-1.37-1.51-10.23-1.72-11.48-.19-1.25-.43-4.47-.72-4.44-.26.02-2.85.04-2.99.07-.3.02-.79-.33-.76.52.11,2.78-.73,18.18-.73,19.15s.17,1.22-.84,1.26c-1,.02-1.29.3-1.58-.34-.17-.35-3.46-7.49-6.4-13.89-2.21-4.76-3.87-9.01-5.39-9.98-1.37-.86-1.78-.68-1.72-1.19.07-.6.75-.37.75-.37,1.22.43,2.61.99,3.98,1.42,2.52.8,4.84,1.37,5.11,1.44.4.09.45.75-.27.61-1.25-.22-2.89-.66-2.77-.16.09.5,6.62,16.62,7.27,18.32.4,1,.56,1.51.59,1.17.05-.59.52-17.24.53-17.89-.03-.69-1.77-.61-3.4-1.29-.42-.19-.61-.98.17-.86,1.06.17,6.01.99,7.66,1.12,2.22.22,5.09.58,7.18.53,4.12-.45,8.53-.6,10.29-.19,1.75.39,4.65,1.88,5.25,4.68.6,2.83,1.16,6.03-2.92,7.39-.59.21-.55,1.22-.17,1.27.55.03,3.35.26,3.85,3.39.38,2.45.53,3.71,3.39,3.71,1.01,0,.11,1.3-.92,1.3ZM69.33,352.68c-.75.03-.59-.91-.35-.96,1.29-.25,2.55-.89,2.55-1.43s-.85-7-.97-8.55c-.08-1.54-.38-6.49-.53-8.59-.15-2.09-.4-1.83-.85-1.75-.44.11-1.14.26-1.98.5-.86.26-.65,1.59-.55,2.64.11,1.04-.05,1.69-.45,1.77-.4.12-.89-.63-1.54-.98-.64-.35-.32-3.43-.3-4.51.02-.66,2.2-.59,3.49-.68,1.29-.11,7.64-.74,8.74-.9,1.1-.15,1.1-.03,1.19.47.11.5.88,3.6.72,3.91-.16.28-.43.87-1.04.87-.81,0-1.13-.94-1.13-.94-.11-.59-.2-2.34-.2-2.69s-1.32-.04-2.1.05c-.72.1-.83.19-.83.49s.09,4.32.24,6.66c.15,2.34.4,10.58.5,11.67.08.97,2.63.96,2.92,1.05.3.1.65,1.09.15,1.14-.5.04-5.15.57-7.69.75ZM73.69,357.57c.48,20.98.78,34.49.79,34.86.02.53.02.8-.32.84-.28,0-.37-.23-.37-.78,0-.36-.33-13.85-.85-34.83.25-.03.5-.06.75-.08ZM86.21,393.85c.33,0,.62.06.89.15-.08.15-.24.36-.38.54-.57.8-1.48,1.98-1.53,3.65,0,.27-.02.54-.03.83-.11,3.51-.22,7.15-3.03,7.88l-.05.03c-.25.11-.6.15-1.06.16-.5-2.63-2.78-4.28-3.23-4.3h-.04c-.52.02-2.77,1.77-3.28,4.3-.48,0-.83-.05-1.08-.16l-.04-.03c-2.82-.73-2.93-4.37-3.03-7.88-.02-.29-.03-.55-.04-.83-.06-1.67-.95-2.84-1.53-3.65-.12-.18-.3-.4-.38-.53,1.16-.45,2.69.08,3.8,1.28.88.91,1.35,2.05,1.34,3.1-.38.33-.54.92-.4,1.51.16.68.7,1.11,1.39,1.16h.06c.74-.06,1.3-.52,1.41-1.23.12-.61-.11-1.24-.57-1.55-.75-2.78,1.27-5.11,2.14-5.89v-1.96c-.04-3.02-.1-8.34-.18-15.43.23.74.47,1.46.71,2.15.05,6.21.08,10.86.11,13.56h-.01v1.6c.06.04.1.08.15.14.93.93,2.47,3.26,1.78,5.83-.47.31-.72.93-.6,1.55.14.72.67,1.18,1.45,1.23h.05c.69-.05,1.23-.49,1.4-1.16.13-.59-.03-1.18-.4-1.51-.02-1.05.47-2.19,1.31-3.1.86-.92,1.94-1.45,2.92-1.45ZM81.08,392.43c0,.53,0,.8-.3.84-.29,0-.4-.23-.4-.78,0-.18.03-3.49.07-9.24.23.5.46.97.69,1.43-.04,4.84-.07,7.6-.07,7.76ZM88.79,369.28c-2.34.05-7.82,0-10.32-1.41-.83-.43-1.24-1.07-1.16-1.77.17-1.63,3.15-3.54,8.81-5.75l11.91-4.67.85-.43c.15-.1.18-.22.09-.37,10.8-1.1,21.48-2.03,31.06-2.32.12,3.74.23,7.33.33,10.76-.03,0-.06,0-.1,0-2.94.17-7.73.69-10.42.92-9.89.86-20.77,4.45-31.06,5.03ZM123.32,387.49c-.3.04-1.3.17-2.32.25-.93.09-1.87.14-2.17.18-.59.06-1.79.21-1.79-.16,0-.64,1.43-.8,2.37-.94,1.06-.15.31-3.01.22-3.95-.14-1.45-.38-4.91-.4-5.55-.02-.65-.2-2.05-.17-2.66.06-2.07-1.29-1.49-1.39-1.45-.42.14-1.23.77-1.27.27,0,0,.41-.78.71-.84.14-.02.87-.69,1.12-1.18.3-.57.91-1.33,1.72-1.27.73.06,1.01.13,1.05.49.03.35.22,1,.19,1.81-.04.78.66,9.34.71,10.79.03,1.46-.03,3.26.36,3.33.56.06,1.63-.07,1.65.34.02.4-.05.48-.6.53ZM127.06,386.05c-.86-.5-1.71-1.42-2.32-3.01-.97-2.48.87-4.81,2-5.93-1.14-.8-2.13-2.14-2.04-3.72.1-2.48,1.47-3.69,2.64-4.24.94-.56,1.57-.45,2.4-.32,1.24.22,3.29,1.13,3.78,3.98.29,1.52-.46,2.94-1.48,3.91,1.29.97,3.34,2.98,2.72,5.54-.87,3.66-3.32,4.34-4.2,4.52-.63.14-2.37.11-3.49-.73ZM133.97,391.76c.15,6.95.23,10.96.25,11.16,0,.52,0,.8-.31.85-.29-.01-.38-.25-.38-.78,0-.21-.09-4.24-.25-11.22.23,0,.47,0,.71,0ZM145.94,404.35c.32,0,.62.07.89.16-.08.15-.25.35-.38.54-.59.8-1.48,1.99-1.54,3.65,0,.28-.01.55-.02.82-.11,3.51-.23,7.15-3.02,7.9l-.07.02c-.24.1-.59.15-1.06.15-.5-2.61-2.77-4.28-3.23-4.3h-.04c-.52.01-2.77,1.76-3.28,4.3-.47,0-.83-.05-1.07-.15l-.04-.02c-2.82-.75-2.93-4.38-3.05-7.9,0-.28-.02-.55-.02-.82-.06-1.66-.94-2.85-1.53-3.65-.12-.18-.29-.39-.37-.52,1.14-.46,2.67.07,3.79,1.28.86.91,1.35,2.05,1.33,3.1-.38.34-.54.92-.39,1.51.16.68.7,1.13,1.4,1.16h.05c.74-.05,1.31-.51,1.43-1.23.12-.6-.12-1.23-.59-1.56-.75-2.77,1.28-5.1,2.15-5.88v-1.96c-.02-2.01-.06-5.13-.1-9.15.22,0,.44,0,.66.02.03,4.17.06,7.38.06,9.41v1.6c.03.05.09.08.14.15.93.92,2.47,3.25,1.78,5.82-.47.33-.72.96-.61,1.56.15.72.7,1.18,1.45,1.23h.06c.69-.03,1.22-.48,1.39-1.16.13-.59-.03-1.16-.4-1.51-.02-1.05.47-2.19,1.32-3.1.86-.91,1.94-1.45,2.92-1.45ZM140.81,402.93c0,.52,0,.8-.3.85-.29-.01-.39-.25-.39-.78,0-.21.03-4.19.08-11.11.24.01.47.02.71.03-.07,6.85-.1,10.81-.1,11.01ZM145.19,383.61c-.83,1.5-2.44,2.61-3.98,2.58-1.22-.02-3.74-.15-4.34-3.82,0,0-.38-3.17-.38-5.5,0-2.2.4-4.08.97-5.04,1.14-2.74,3.18-2.89,4.3-2.83,1.53.05,3.04,1.28,3.82,2.82.29.55.4,1.39.43,2.4,0,.09.03.16.03.26,0,0-.04,7.63-.87,9.13ZM157.86,384.17c-1.15,3.56-3.64,4.05-4.53,4.16-.51.07-1.69-.03-2.66-.49-1.07-.49-2.34-1.49-2.98-3.79-.72-2.57,1.29-4.66,2.52-5.68-1.08-.89-1.94-2.29-1.75-3.86.34-2.87,2.32-3.9,3.54-4.2.02,0,.04,0,.06,0,.73-.23,1.29-.08,1.97.11,1.21.35,3.15,1.46,3.39,4.33.12,1.54-.74,2.88-1.83,3.73,1.21,1.09,3.04,3.23,2.27,5.7ZM181.05,369.28c-10.28-.58-21.18-4.17-31.05-5.03-1.52-.13-3.7-.35-5.85-.55.07-3.52.16-7.2.24-11.04,12.2.31,20.36.8,27.6,1.45-.89.4-1.47.9-1.04,1.14l.83.43,11.92,4.67c5.69,2.21,8.64,4.12,8.82,5.75.09.69-.34,1.34-1.15,1.77-2.51,1.41-7.98,1.44-10.33,1.41ZM189.99,381.84c.15,6.58.24,10.39.24,10.59,0,.53,0,.8-.31.84-.3,0-.39-.23-.39-.78,0-.17-.07-3.44-.21-9.12.23-.49.45-1,.67-1.52ZM201.95,393.85c.33,0,.63.06.89.15-.06.15-.23.36-.37.54-.59.8-1.47,1.98-1.53,3.65-.02.27-.02.54-.03.83-.11,3.51-.22,7.15-3.04,7.88l-.05.03c-.24.11-.6.15-1.06.16-.5-2.63-2.78-4.28-3.22-4.3h-.05c-.52.02-2.76,1.77-3.28,4.3-.48,0-.82-.05-1.08-.16l-.05-.03c-2.81-.73-2.92-4.37-3.04-7.88-.01-.29-.02-.55-.04-.83-.05-1.67-.94-2.84-1.53-3.65-.13-.18-.29-.4-.36-.53,1.13-.45,2.67.08,3.78,1.28.87.91,1.36,2.05,1.34,3.1-.37.33-.54.92-.4,1.51.17.68.71,1.11,1.4,1.16h.05c.74-.06,1.31-.52,1.42-1.23.12-.61-.11-1.24-.56-1.55-.77-2.78,1.26-5.11,2.11-5.89v-1.96c-.03-3.3-.09-9.32-.18-17.44.26-.87.49-1.65.68-2.37.08,9.52.13,16.52.15,20.09v1.6s.09.08.14.14c.93.93,2.47,3.26,1.78,5.83-.47.31-.72.93-.6,1.55.14.72.69,1.18,1.43,1.23h.07c.69-.05,1.23-.49,1.39-1.16.14-.59-.02-1.18-.4-1.51,0-1.05.48-2.19,1.32-3.1.88-.92,1.94-1.45,2.91-1.45ZM201.83,331.86c-.7-.29-1.09-.15-1.19.24-.25,1.01-2.57,12.07-2.82,13.71-.26,1.65-1.05,5.21-.65,5.41.39.22,2.14-.18,2.08.86-.03.88-4.41-.07-5.89-.25-.81-.11-.75-.89-.06-.81.4.06,1.07.21,1.08-.2.42-5.65,1.95-10.54,2.35-13.04,0,0,.54-4.28.84-5.67.13-.58-.64-.82-2.13-.94-1.37-.1-.84-1.19-.25-1.11,1.19.21,3.59.21,4.93.31,1.32.11,3.76-.24,2.86,1.09-.28.45-.43.7-1.14.4ZM216.88,333.15c-.4,2.67.1,3.08-1,3.28-1.08.2-1.57.2-1.28-1.09.31-1.29,1.04-2.49.4-2.44-.63.06-3.18-.29-3.23.14-.05.45-3.77,17.78-3.92,18.24-.16.43.79.84,1.37.94.61.1,1.85.15,1.6.85-.24.69-3.48,0-5.66-.36-2.19-.34-2.13-.34-2.02-1,.09-.63,1.63.11,1.97-.79.34-.88,2.74-13.26,3.02-14.84.3-1.59.96-3.08.3-3.08-.53,0-1.92-.35-2.28.09-.34.45-.51,1.24-.9,2.34-.34,1.05-1.33,1.38-1.37.8-.1-1.15-.6-1.04-.55-1.4l.05-.34c.75-1.74,1.29-3.63,1.94-3.58.64.05,9.54.35,10.18.35s1.78-.79,1.39,1.88ZM222.06,352.68c-4.53.73-4.33-4.97-3.99-7.37.38-2.6,1.8-11.03,1.89-11.67.11-.63.3-1.29-.09-1.33-.4-.04-1.8.25-1.9-.2-.15-.7.5-1.04.5-1.04,2.83.26,4.14.45,5.56.1,1.44-.34,1.83-.1,1.59.4-.26.49-1.74.39-2.14.84-.39.45-2.53,9.29-2.68,10.62-.15,1.35-.74,5.82-.59,6.37.13.56.78,2.19,3.02,1.39,2.24-.79,2.95-3.78,3.09-4.83.14-1.03,2.69-9.73,2.92-11.37.27-1.63.86-2.19.3-2.43-.54-.26-.78.19-1.34-.2-.53-.39-.78-.63-.39-.94.39-.3,2.39-.3,3.77-.44,1.39-.16,3.62-.45,4.07-.75.44-.3.64.75.09.95-.54.18-2.97.63-3.23,1.49-.36,1.18-2.82,10.76-3.68,13-.85,2.23-1.42,6.5-6.79,7.41ZM248.86,328.59c-.47,1.32-2.2,5.69-2.37,6.19-.25.71.45,1.3.35,1.51-.1.2-1.1.03-1.28-.3-.2-.36-.04-2.89-.4-4.22-.37-1.35-2.79-2.93-4.44-1.26-1.63,1.7-1.43,4.37-.64,5.31.81.95,5.36,4.46,4.47,8.4-.88,3.93-2.18,7.36-7.49,7.36-2.08,0-3.58-2.03-3.84-2.63-.24-.6-.94,1.33-1.29,2.22-.35.91-.8,1-1.4,1.05-.6.05-.23-.74.07-1.58.29-.86,1.89-4.42,2.27-6.51.4-2.09,1.29-4.02,1.73-3.38.46.64.81,1.04.25,2.48-.53,1.44-.19,2.58-.14,3.27.04.71,1.38,3.2,3.57,2.73,2.18-.43,4.23-2.78,4.17-5.06-.04-2.29-1.04-2.2-2.67-3.77-1.65-1.59-4.08-4.67-2.1-8.45,2-3.77,5.2-3.68,6.46-3.22,1.23.45,1.88,1.63,2.72,1.18.86-.44.89-.74,1.05-1.44.15-.68,1.2-.6.93.12ZM234.23,302.76c-3.57-1.28-11.59-2.36-16.29-6.8,6.36,3.4,13.38,4.52,16.84,5.56,3.48,1.01,11.27,2.92,14.35,9.89-4.64-6.1-11.33-7.37-14.89-8.65ZM236.93,298.75c-3.53-1.22-11.45-2.25-16.08-6.48,6.29,3.24,13.21,4.3,16.63,5.28,3.43.98,11.09,2.8,14.14,9.47-4.57-5.84-11.17-7.03-14.68-8.27ZM242.18,295.26c-3.45-1.25-11.24-2.3-15.83-6.57,6.19,3.28,13.01,4.36,16.36,5.34,3.37.98,10.94,2.84,13.93,9.54-4.51-5.88-11-7.09-14.47-8.32ZM245.46,290.61c3.38.98,10.95,2.82,13.94,9.55-4.5-5.89-11-7.12-14.47-8.34-3.45-1.23-11.25-2.28-15.83-6.55,6.19,3.28,13,4.35,16.36,5.34ZM236.24,280.51l-1.64-.51c3.82-.91,8.46-1.62,12.34-1.92-3.84.74-7.08,1.09-10.7,2.43Z"/>
  <path class="cls-1" d="M96.8,76.68s-.69-.07-1.08-.07c1.23,3.25-1.6,6.18-5.39,6.18-27.66.05-31.63,1.47-31.39,1.46,2.06-.04,33.05.01,33.05.01,4.4,0,6.36-5.52,4.81-7.59Z"/>
  <path class="cls-1" d="M156.53,76.68s-.68-.07-1.08-.07c1.23,3.25-1.6,6.18-5.39,6.18-27.67.05-31.64,1.47-31.39,1.46,2.05-.04,33.05.01,33.05.01,4.4,0,6.36-5.52,4.81-7.59Z"/>
  <path class="cls-1" d="M212.55,76.68s-.68-.07-1.08-.07c1.22,3.25-1.6,6.18-5.38,6.18-27.67.05-31.65,1.47-31.39,1.46,2.05-.04,33.06.01,33.06.01,4.39,0,6.35-5.52,4.8-7.59Z"/>
  <path class="cls-1" d="M128.86,375.57c1.26-.63,2.68-1.28,2.93-2.53.17-.95.27-2.09-1.63-2.99-.51-.25-.95-.33-1.37-.33-.32.05-.65.14-.99.31-1.88.97-1.77,2.43-1.47,3.36.33.97,1.43,1.72,2.54,2.18Z"/>
  <path class="cls-1" d="M152.48,377.04c1.32-.51,2.82-1.01,3.17-2.24.27-.94.47-2.04-1.34-3.16-.56-.34-1.07-.46-1.55-.46-.32.01-.61.1-.96.23-.06.03-.11.06-.15.06-.55.29-.98.71-1.34,1.09v.02c-.43.7-.37,1.47-.22,2.05.24,1.01,1.3,1.86,2.39,2.42Z"/>
  <path class="cls-1" d="M140.58,370.19c-1.21.4-1.7,3-1.7,3-.27,1.12-.5,4.47-.54,5.97.06,1.11.12,2.15.21,2.64,0,0,.34,2.64,1.54,3.14,1.79.7,3.43-.2,3.63-2.99.22-3,.25-5.02.28-6.67.03-.5.04-.83.05-1.05,0-.28,0-.56,0-.84-.04-2.8-1.61-3.82-3.46-3.2Z"/>
  <path class="cls-1" d="M153.14,379.47h-.07c-2.04-.03-3.21,1.59-3.21,1.59-.78,1-1.46,3.99.5,5.41.74.52,1.42.77,2.04.78.66.05,1.39-.08,2.23-.56.29-.18.55-.35.72-.49,1.56-1.44,1-4.13.32-5.08,0,0-.93-1.33-2.52-1.65Z"/>
  <path class="cls-1" d="M132.37,379.38s-1.07-1.27-2.73-1.45c-2.03.19-3.02,1.91-3.02,1.91-.68,1.1-1.07,4.14,1,5.33.86.5,1.62.64,2.28.6.66-.09,1.38-.36,2.14-.97,1.91-1.49,1.12-4.43.33-5.42Z"/>
  <path class="cls-1" d="M353.47,299.02v-29.57c-.6-.11-1.27-.19-1.99-.23-.73-.04-1.38-.07-1.96-.07s-1.17.02-1.83.07c-.66.05-1.29.12-1.89.23v29.57c0,3.57-.79,6.28-2.36,8.12-1.57,1.84-3.92,2.76-7.05,2.76s-5.51-.92-7.08-2.76c-1.57-1.84-2.36-4.55-2.36-8.12v-24.99c0-1.7-.33-2.94-1-3.73-.67-.79-1.79-1.19-3.35-1.19h-2.88l-.44.43v29.47c0,3.71.7,6.83,2.09,9.36,1.4,2.53,3.37,4.45,5.93,5.76,2.56,1.31,5.57,1.96,9.03,1.96s6.54-.65,9.11-1.96c2.57-1.31,4.55-3.23,5.95-5.76,1.4-2.53,2.09-5.65,2.09-9.36Z"/>
  <path class="cls-1" d="M383.9,314.46c.59.8,1.63,1.21,3.1,1.21.89,0,1.75-.15,2.58-.45.83-.3,1.52-.69,2.07-1.16-.45-.78-.76-1.7-.94-2.76-.18-1.06-.27-2.18-.27-3.37v-15.34c0-2.1-.31-3.99-.94-5.66-.62-1.67-1.6-3-2.91-3.99-1.32-.98-3.02-1.47-5.09-1.47-2.41,0-4.67.6-6.78,1.81-1.33.76-2.53,1.63-3.63,2.59-.12-1.1-.42-2-.89-2.71-.64-.95-1.71-1.42-3.23-1.42h-2.81l-.44.44v33.02c1.09.2,2.35.3,3.75.3s2.63-.1,3.68-.3v-23.21c.28-.29.56-.58.87-.84,1.12-.96,2.3-1.7,3.55-2.21,1.25-.51,2.4-.77,3.45-.77,1.58,0,2.64.49,3.18,1.46s.8,2.53.8,4.67v16.64c0,1.54.3,2.71.89,3.52Z"/>
  <path class="cls-1" d="M404.88,315.5c1.41,0,2.65-.1,3.72-.3v-27.09c0-1.94-.51-3.47-1.52-4.59-1.02-1.12-2.41-1.67-4.17-1.67h-1c-.51,0-1.17.02-1.98.07-.8.04-1.64.12-2.51.24-.11.47-.19.93-.23,1.39-.05.46-.07.9-.07,1.32,0,.89.1,1.77.3,2.61h.8c1.12,0,1.89.3,2.31.89.42.59.64,1.47.64,2.63v24.21c1.07.2,2.31.3,3.72.3Z"/>
  <path class="cls-1" d="M399.72,269.95c-.42.92-.64,1.95-.64,3.11s.21,2.21.64,3.15c.4.25.98.45,1.72.6.75.16,1.47.24,2.16.24.65,0,1.37-.08,2.16-.24.79-.16,1.37-.36,1.72-.6.42-.94.64-1.99.64-3.15,0-.49-.06-1.03-.18-1.61-.12-.58-.27-1.08-.45-1.51-.38-.25-.96-.45-1.74-.62-.78-.17-1.49-.25-2.14-.25-.69,0-1.4.08-2.13.25-.73.17-1.31.37-1.76.62Z"/>
  <path class="cls-1" d="M424.14,314.83c.78.49,1.9.74,3.35.74.92,0,1.85-.03,2.8-.08.95-.05,1.82-.15,2.63-.28.62-1.85,1.36-4.1,2.21-6.73.85-2.63,1.74-5.46,2.68-8.47.94-3.02,1.86-6.02,2.78-9.01.91-2.99,1.76-5.76,2.54-8.31l-.24-.33c-.56-.2-1.17-.34-1.82-.43-.66-.09-1.31-.14-1.96-.14-.45,0-.9.02-1.37.07-.47.04-.94.12-1.41.23l-7.6,27.2c-.33,0-.55-.18-.64-.54-.13-.69-.33-1.58-.59-2.66-.26-1.08-.54-2.23-.85-3.45-.31-1.22-.64-2.36-.97-3.43l-4.25-14.37c-.31-1.23-.8-2.08-1.47-2.54-.67-.47-1.54-.7-2.61-.7-.63,0-1.3.09-2.01.27-.72.18-1.47.44-2.28.8l9.11,28.87c.54,1.72,1.2,2.83,1.98,3.32Z"/>
  <path class="cls-1" d="M459.3,316.1c2.32,0,4.6-.35,6.83-1.04,2.23-.69,4.15-1.61,5.76-2.75-.11-.76-.36-1.59-.75-2.48-.39-.89-.88-1.63-1.46-2.21-1.43.69-2.92,1.28-4.46,1.76-1.54.48-3.15.72-4.82.72-2.01,0-3.55-.48-4.62-1.42-1.07-.95-1.81-2.24-2.23-3.87-.3-1.17-.48-2.45-.56-3.82h19.27c.22-.96.37-1.83.45-2.63.08-.79.12-1.76.12-2.9,0-2.68-.51-5.09-1.54-7.25-1.03-2.16-2.53-3.87-4.52-5.14-1.99-1.27-4.43-1.91-7.33-1.91-3.17,0-5.8.77-7.89,2.31-2.09,1.54-3.65,3.63-4.69,6.26-1.04,2.63-1.56,5.63-1.56,8.98,0,2.26.23,4.42.69,6.5.46,2.08,1.21,3.93,2.26,5.58,1.05,1.64,2.48,2.94,4.28,3.89,1.81.95,4.07,1.42,6.77,1.42ZM459.4,286.63c1.52,0,2.75.37,3.68,1.12.94.75,1.61,1.74,2.03,2.98.41,1.24.62,2.6.62,4.07v.87h-12.76c.13-2.61.65-4.71,1.55-6.28,1.06-1.84,2.69-2.76,4.87-2.76Z"/>
  <path class="cls-1" d="M488.83,286.24c-.25.45-.48.92-.69,1.39-.32-.98-.72-1.88-1.23-2.68-1.16-1.81-2.93-2.94-5.29-3.38-.54.38-1.06.96-1.58,1.74-.51.78-.86,1.52-1.04,2.21.58.52,1.14,1.34,1.68,2.48.53,1.14.8,2.61.8,4.42v22.77c1.09.2,2.35.3,3.75.3s2.61-.1,3.68-.3v-21.68c.4-.78.85-1.51,1.39-2.17.66-.8,1.45-1.46,2.36-1.96.91-.5,1.98-.75,3.18-.75.49.05.97.09,1.44.14.47.05.94.12,1.41.24.62-1.01,1.08-2.18,1.37-3.52.29-1.34.43-2.49.43-3.45-.65-.16-1.25-.27-1.82-.33-.57-.07-1.19-.1-1.86-.1-1.92,0-3.53.42-4.84,1.27-1.31.85-2.36,1.97-3.15,3.37Z"/>
  <path class="cls-1" d="M519.19,295.81l-4.12-1.54c-1.32-.49-2.3-1.03-2.95-1.62-.65-.59-.97-1.32-.97-2.19,0-1.09.41-1.98,1.24-2.64.83-.67,1.92-1,3.28-1,1.65,0,3.27.24,4.84.72,1.57.48,2.96.99,4.17,1.53.65-.54,1.18-1.34,1.59-2.41.41-1.07.6-2.06.55-2.98-1.38-.65-3.12-1.22-5.21-1.72-2.09-.5-4.06-.75-5.91-.75-2.3,0-4.36.41-6.18,1.22-1.82.81-3.25,1.98-4.29,3.48-1.04,1.51-1.56,3.3-1.56,5.38,0,1.7.38,3.16,1.15,4.39.77,1.23,1.8,2.27,3.08,3.11,1.28.85,2.7,1.55,4.24,2.11l3.89,1.44c1.34.49,2.34,1.11,3.01,1.86.67.75,1,1.57,1,2.46,0,1.14-.51,2.08-1.52,2.81-1.02.74-2.39,1.11-4.14,1.11-1.63,0-3.25-.3-4.85-.9-1.61-.6-3.13-1.28-4.56-2.04-.6.58-1.14,1.38-1.61,2.39-.47,1.01-.73,1.95-.77,2.8,1.47.87,3.22,1.64,5.24,2.31,2.02.67,4.21,1,6.58,1,4.02,0,7.25-.9,9.68-2.71,2.43-1.81,3.65-4.27,3.65-7.4,0-2.63-.8-4.77-2.39-6.4-1.6-1.63-3.66-2.89-6.18-3.78Z"/>
  <path class="cls-1" d="M540.69,269.33c-.78-.17-1.49-.25-2.14-.25-.69,0-1.4.08-2.13.25-.73.17-1.31.37-1.76.62-.42.92-.64,1.95-.64,3.11s.21,2.21.64,3.15c.4.25.98.45,1.72.6.75.16,1.47.24,2.16.24.65,0,1.37-.08,2.16-.24.79-.16,1.37-.36,1.72-.6.42-.94.64-1.99.64-3.15,0-.49-.06-1.03-.18-1.61-.12-.58-.27-1.08-.45-1.51-.38-.25-.96-.45-1.74-.62Z"/>
  <path class="cls-1" d="M537.84,281.84h-1c-.51,0-1.17.02-1.98.07-.8.04-1.64.12-2.51.24-.11.47-.19.93-.23,1.39-.05.46-.07.9-.07,1.32,0,.89.1,1.77.3,2.61h.8c1.12,0,1.89.3,2.31.89.42.59.64,1.47.64,2.63v24.21c1.07.2,2.31.3,3.72.3s2.65-.1,3.72-.3v-27.09c0-1.94-.51-3.47-1.52-4.59-1.02-1.12-2.41-1.67-4.17-1.67Z"/>
  <path class="cls-1" d="M579.15,309.28c-.28-1.1-.42-2.28-.42-3.53v-35.14c0-1.65-.28-2.85-.84-3.58-.56-.74-1.62-1.11-3.18-1.11h-2.81l-.43.44v17.27c-.48-.26-.94-.54-1.44-.79-1.79-.89-3.76-1.34-5.93-1.34s-4.27.63-6.25,1.89c-1.98,1.26-3.58,3.19-4.82,5.79-1.24,2.6-1.86,5.89-1.86,9.86,0,3.35.43,6.31,1.29,8.88.86,2.57,2.15,4.57,3.87,6.01,1.72,1.44,3.86,2.16,6.43,2.16,2.12,0,4.04-.48,5.76-1.42,1.54-.85,2.84-1.91,3.93-3.17.16.37.34.73.54,1.08,1.01,1.7,2.66,2.73,4.94,3.11.58-.38,1.13-.94,1.64-1.69.51-.75.86-1.46,1.04-2.13-.69-.62-1.18-1.49-1.46-2.6ZM567.88,309.07c-1.18.58-2.31.87-3.38.87s-1.98-.37-2.85-1.12-1.57-1.92-2.11-3.52-.8-3.68-.8-6.25.28-4.79.84-6.53c.56-1.74,1.32-3.04,2.29-3.9.97-.86,2.07-1.29,3.3-1.29,1.59,0,3.15.45,4.69,1.36.56.33,1.08.67,1.61,1.01v16.23c-.09.12-.17.26-.27.38-1.03,1.26-2.13,2.18-3.32,2.76Z"/>
  <path class="cls-1" d="M612.96,306.32v-13.7c0-2.61-.48-4.74-1.42-6.4-.95-1.65-2.26-2.87-3.92-3.67-1.66-.79-3.58-1.19-5.74-1.19-1.49,0-3.09.14-4.79.42-1.7.28-3.35.65-4.97,1.1-1.62.46-3.06.97-4.34,1.53.04.94.26,1.92.64,2.95.38,1.03.86,1.84,1.44,2.45,1.76-.67,3.53-1.25,5.31-1.74,1.78-.49,3.49-.74,5.14-.74s3.01.44,3.93,1.32c.93.88,1.39,2.33,1.39,4.34v2.37c-.66-.09-1.33-.16-2.03-.2-1.57-.1-2.96-.15-4.17-.15-2.41,0-4.59.4-6.53,1.19-1.94.79-3.49,2.02-4.64,3.67-1.15,1.65-1.72,3.75-1.72,6.3,0,1.61.36,3.17,1.09,4.69.73,1.52,1.82,2.77,3.28,3.77,1.46.99,3.31,1.49,5.54,1.49,1.94,0,3.69-.38,5.24-1.12,1.55-.75,2.92-1.65,4.09-2.7.27-.24.53-.48.77-.71.46.99,1.11,1.86,1.97,2.59.93.78,2.14,1.29,3.63,1.54.58-.38,1.13-.94,1.64-1.69.51-.75.86-1.46,1.04-2.13-.74-.67-1.23-1.46-1.49-2.36-.26-.9-.39-1.97-.39-3.2ZM603.2,308.63c-1.75,1.12-3.42,1.67-5.01,1.67-1.38,0-2.44-.45-3.18-1.36-.74-.9-1.1-2-1.1-3.3,0-1.72.52-3.08,1.56-4.09,1.04-1,2.53-1.51,4.47-1.51,1.25,0,2.61.04,4.09.12.56.03,1.09.08,1.61.14v6.27c-.74.81-1.55,1.5-2.43,2.06Z"/>
  <path class="cls-1" d="M637.58,314.68c1.54-.85,2.84-1.91,3.93-3.17.16.37.34.73.54,1.08,1.01,1.7,2.66,2.73,4.94,3.11.58-.38,1.13-.94,1.64-1.69.51-.75.86-1.46,1.04-2.13-.69-.62-1.18-1.49-1.46-2.6-.28-1.1-.42-2.28-.42-3.53v-35.14c0-1.65-.28-2.85-.84-3.58-.56-.74-1.62-1.11-3.18-1.11h-2.81l-.43.44v17.27c-.48-.26-.94-.54-1.44-.79-1.79-.89-3.76-1.34-5.93-1.34s-4.27.63-6.25,1.89c-1.98,1.26-3.58,3.19-4.82,5.79-1.24,2.6-1.86,5.89-1.86,9.86,0,3.35.43,6.31,1.29,8.88.86,2.57,2.15,4.57,3.87,6.01,1.72,1.44,3.86,2.16,6.43,2.16,2.12,0,4.04-.48,5.76-1.42ZM628.6,305.3c-.54-1.6-.8-3.68-.8-6.25s.28-4.79.84-6.53c.56-1.74,1.32-3.04,2.29-3.9.97-.86,2.07-1.29,3.3-1.29,1.59,0,3.15.45,4.69,1.36.56.33,1.08.67,1.61,1.01v16.23c-.09.12-.17.26-.27.38-1.03,1.26-2.13,2.18-3.32,2.76-1.18.58-2.31.87-3.38.87s-1.98-.37-2.85-1.12-1.57-1.92-2.11-3.52Z"/>
  <path class="cls-1" d="M683.04,298.37c.08-.79.12-1.76.12-2.9,0-2.68-.51-5.09-1.54-7.25-1.03-2.16-2.53-3.87-4.52-5.14-1.99-1.27-4.43-1.91-7.33-1.91-3.17,0-5.8.77-7.89,2.31-2.09,1.54-3.65,3.63-4.69,6.26-1.04,2.63-1.56,5.63-1.56,8.98,0,2.26.23,4.42.69,6.5.46,2.08,1.21,3.93,2.26,5.58,1.05,1.64,2.48,2.94,4.28,3.89,1.81.95,4.07,1.42,6.77,1.42,2.32,0,4.6-.35,6.83-1.04,2.23-.69,4.15-1.61,5.76-2.75-.11-.76-.36-1.59-.75-2.48-.39-.89-.88-1.63-1.46-2.21-1.43.69-2.92,1.28-4.46,1.76-1.54.48-3.15.72-4.82.72-2.01,0-3.55-.48-4.62-1.42-1.07-.95-1.81-2.24-2.23-3.87-.3-1.17-.48-2.45-.56-3.82h19.27c.22-.96.37-1.83.45-2.63ZM676.06,295.67h-12.76c.13-2.61.65-4.71,1.55-6.28,1.06-1.84,2.69-2.76,4.87-2.76,1.52,0,2.75.37,3.68,1.12.94.75,1.61,1.74,2.03,2.98.41,1.24.62,2.6.62,4.07v.87Z"/>
  <path class="cls-1" d="M347.14,346.78h-26.83l-.43.4v45.35c.6.11,1.25.19,1.94.24.69.04,1.33.07,1.91.07s1.23-.02,1.89-.07c.66-.05,1.3-.12,1.93-.24v-19.84c.93.03,1.81.04,2.61.04h13.36c.14-.51.23-1.07.29-1.66.05-.59.08-1.11.08-1.56,0-.42-.03-.94-.08-1.54-.06-.6-.15-1.14-.29-1.61h-13.36c-.8,0-1.68.01-2.61.03v-5.62c0-1.72-.01-3.47-.03-5.24,0-.77,0-1.52-.01-2.28.39.01.77.02,1.17.03,1.51.03,3.17.05,4.97.05h9.65c1.43,0,2.5-.29,3.2-.85.71-.57,1.06-1.47,1.06-2.7,0-.47-.03-.98-.08-1.54-.06-.56-.16-1.05-.32-1.47Z"/>
  <path class="cls-1" d="M371.19,360.41c-1.99-1.27-4.43-1.91-7.33-1.91-3.17,0-5.8.77-7.89,2.31-2.09,1.54-3.65,3.63-4.69,6.26-1.04,2.63-1.56,5.63-1.56,8.98,0,2.26.23,4.42.69,6.5.46,2.08,1.21,3.93,2.26,5.58,1.05,1.64,2.48,2.94,4.28,3.89,1.81.95,4.07,1.42,6.77,1.42,2.32,0,4.6-.35,6.83-1.04,2.23-.69,4.15-1.61,5.76-2.75-.11-.76-.36-1.59-.75-2.48-.39-.89-.88-1.63-1.46-2.21-1.43.69-2.92,1.28-4.46,1.76-1.54.48-3.15.72-4.82.72-2.01,0-3.55-.48-4.62-1.42-1.07-.95-1.81-2.24-2.23-3.87-.3-1.17-.48-2.44-.56-3.82h19.27c.22-.96.37-1.83.45-2.63.08-.79.12-1.76.12-2.9,0-2.68-.51-5.09-1.54-7.25-1.03-2.16-2.53-3.87-4.52-5.14ZM370.15,373h-12.76c.13-2.61.65-4.71,1.55-6.28,1.06-1.84,2.69-2.76,4.87-2.76,1.52,0,2.75.37,3.68,1.12.94.75,1.61,1.74,2.03,2.98.41,1.24.62,2.6.62,4.07v.87Z"/>
  <path class="cls-1" d="M410.68,383.09v-35.14c0-1.65-.28-2.85-.84-3.58-.56-.74-1.62-1.11-3.18-1.11h-2.81l-.43.44v17.27c-.48-.26-.94-.54-1.44-.79-1.79-.89-3.76-1.34-5.93-1.34s-4.27.63-6.25,1.89c-1.98,1.26-3.58,3.19-4.82,5.79-1.24,2.6-1.86,5.89-1.86,9.86,0,3.35.43,6.31,1.29,8.88.86,2.57,2.15,4.57,3.87,6.01,1.72,1.44,3.86,2.16,6.43,2.16,2.12,0,4.04-.48,5.76-1.42,1.54-.85,2.84-1.91,3.93-3.17.16.37.34.73.54,1.08,1.01,1.7,2.66,2.73,4.94,3.11.58-.38,1.13-.94,1.64-1.69.51-.75.86-1.46,1.04-2.13-.69-.62-1.18-1.49-1.46-2.6-.28-1.1-.42-2.28-.42-3.53ZM399.83,386.4c-1.18.58-2.31.87-3.38.87s-1.98-.37-2.85-1.12c-.87-.75-1.57-1.92-2.11-3.52-.54-1.6-.8-3.68-.8-6.25s.28-4.79.84-6.53c.56-1.74,1.32-3.04,2.29-3.9.97-.86,2.07-1.29,3.3-1.29,1.59,0,3.15.45,4.69,1.36.56.33,1.08.67,1.61,1.01v16.23c-.09.12-.17.26-.27.38-1.03,1.26-2.13,2.18-3.32,2.76Z"/>
  <path class="cls-1" d="M439.98,360.41c-1.99-1.27-4.43-1.91-7.33-1.91-3.17,0-5.8.77-7.89,2.31-2.09,1.54-3.65,3.63-4.69,6.26-1.04,2.63-1.56,5.63-1.56,8.98,0,2.26.23,4.42.69,6.5s1.21,3.93,2.26,5.58c1.05,1.64,2.48,2.94,4.28,3.89,1.81.95,4.07,1.42,6.77,1.42,2.32,0,4.6-.35,6.83-1.04,2.23-.69,4.15-1.61,5.76-2.75-.11-.76-.36-1.59-.75-2.48-.39-.89-.88-1.63-1.46-2.21-1.43.69-2.91,1.28-4.45,1.76s-3.15.72-4.82.72c-2.01,0-3.55-.48-4.62-1.42-1.07-.95-1.81-2.24-2.23-3.87-.3-1.17-.48-2.44-.56-3.82h19.27c.22-.96.37-1.83.45-2.63.08-.79.12-1.76.12-2.9,0-2.68-.51-5.09-1.54-7.25-1.03-2.16-2.53-3.87-4.52-5.14ZM438.94,373h-12.76c.13-2.61.65-4.71,1.55-6.28,1.06-1.84,2.69-2.76,4.87-2.76,1.52,0,2.75.37,3.68,1.12.94.75,1.61,1.74,2.03,2.98.41,1.24.62,2.6.62,4.07v.87Z"/>
  <path class="cls-1" d="M470.02,358.94c-1.92,0-3.53.42-4.84,1.27-1.31.85-2.36,1.97-3.15,3.37-.25.45-.48.92-.69,1.39-.32-.98-.72-1.88-1.23-2.68-1.16-1.81-2.93-2.94-5.29-3.38-.54.38-1.06.96-1.58,1.74-.51.78-.86,1.52-1.04,2.21.58.52,1.14,1.34,1.68,2.48.53,1.14.8,2.61.8,4.42v22.77c1.09.2,2.35.3,3.75.3s2.61-.1,3.68-.3v-21.68c.4-.78.85-1.51,1.39-2.17.66-.8,1.45-1.46,2.36-1.96.91-.5,1.98-.75,3.18-.75.49.05.97.09,1.44.14.47.05.94.12,1.41.23.62-1.01,1.08-2.18,1.37-3.52.29-1.34.43-2.49.43-3.45-.65-.16-1.25-.27-1.82-.33-.57-.07-1.19-.1-1.86-.1Z"/>
  <path class="cls-1" d="M502.54,383.65v-13.7c0-2.61-.48-4.74-1.42-6.4-.95-1.65-2.26-2.87-3.92-3.67-1.66-.79-3.58-1.19-5.74-1.19-1.49,0-3.09.14-4.79.42s-3.35.65-4.97,1.1c-1.62.46-3.06.97-4.34,1.53.04.94.26,1.92.64,2.95.38,1.03.86,1.84,1.44,2.45,1.76-.67,3.53-1.25,5.31-1.74,1.78-.49,3.49-.74,5.14-.74s3.01.44,3.93,1.32c.93.88,1.39,2.33,1.39,4.34v2.37c-.66-.09-1.32-.16-2.03-.2-1.57-.1-2.96-.15-4.17-.15-2.41,0-4.59.4-6.53,1.19-1.94.79-3.49,2.02-4.64,3.67-1.15,1.65-1.72,3.75-1.72,6.3,0,1.61.36,3.17,1.09,4.69.73,1.52,1.82,2.77,3.28,3.77,1.46.99,3.31,1.49,5.54,1.49,1.94,0,3.69-.38,5.24-1.12,1.55-.75,2.92-1.65,4.09-2.7.27-.24.53-.48.77-.71.46.99,1.11,1.86,1.97,2.59.93.78,2.14,1.29,3.63,1.54.58-.38,1.13-.94,1.64-1.69.51-.75.86-1.46,1.04-2.13-.74-.67-1.23-1.46-1.49-2.36-.26-.9-.39-1.97-.39-3.2ZM492.78,385.96c-1.75,1.12-3.42,1.67-5.01,1.67-1.38,0-2.44-.45-3.18-1.36-.74-.9-1.1-2-1.1-3.3,0-1.72.52-3.08,1.56-4.09,1.04-1,2.53-1.51,4.47-1.51,1.25,0,2.61.04,4.09.12.56.03,1.09.08,1.61.14v6.27c-.74.81-1.55,1.5-2.43,2.06Z"/>
  <path class="cls-1" d="M522.13,386.97c-.91,0-1.59-.25-2.03-.75-.43-.5-.65-1.24-.65-2.23v-36.04c0-1.65-.28-2.85-.85-3.58-.57-.74-1.62-1.11-3.17-1.11h-2.81l-.43.44v41.9c0,2.41.57,4.22,1.71,5.42,1.14,1.21,2.86,1.81,5.16,1.81.96,0,1.99-.06,3.08-.17,1.09-.11,2.04-.23,2.85-.37.07-.22.11-.48.12-.77.01-.29.02-.57.02-.84,0-1.36-.2-2.6-.6-3.72h-2.38Z"/>
  <path class="cls-1" d="M571.97,383.09v-35.14c0-1.65-.28-2.85-.84-3.58-.56-.74-1.62-1.11-3.18-1.11h-2.81l-.43.44v17.27c-.48-.26-.94-.54-1.44-.79-1.79-.89-3.76-1.34-5.93-1.34s-4.27.63-6.25,1.89c-1.98,1.26-3.58,3.19-4.82,5.79-1.24,2.6-1.86,5.89-1.86,9.86,0,3.35.43,6.31,1.29,8.88.86,2.57,2.15,4.57,3.87,6.01,1.72,1.44,3.86,2.16,6.43,2.16,2.12,0,4.04-.48,5.76-1.42,1.54-.85,2.84-1.91,3.93-3.17.16.37.34.73.54,1.08,1.01,1.7,2.66,2.73,4.94,3.11.58-.38,1.13-.94,1.64-1.69.51-.75.86-1.46,1.04-2.13-.69-.62-1.18-1.49-1.46-2.6-.28-1.1-.42-2.28-.42-3.53ZM561.12,386.4c-1.18.58-2.31.87-3.38.87s-1.98-.37-2.85-1.12c-.87-.75-1.57-1.92-2.11-3.52-.54-1.6-.8-3.68-.8-6.25s.28-4.79.84-6.53c.56-1.74,1.32-3.04,2.29-3.9.97-.86,2.07-1.29,3.3-1.29,1.59,0,3.15.45,4.69,1.36.56.33,1.08.67,1.61,1.01v16.23c-.09.12-.17.26-.27.38-1.03,1.26-2.13,2.18-3.32,2.76Z"/>
  <path class="cls-1" d="M606.2,383.65v-13.7c0-2.61-.48-4.74-1.42-6.4-.95-1.65-2.26-2.87-3.92-3.67-1.66-.79-3.58-1.19-5.74-1.19-1.49,0-3.09.14-4.79.42s-3.35.65-4.97,1.1c-1.62.46-3.06.97-4.34,1.53.04.94.26,1.92.64,2.95.38,1.03.86,1.84,1.44,2.45,1.76-.67,3.53-1.25,5.31-1.74,1.78-.49,3.49-.74,5.14-.74s3.01.44,3.93,1.32c.93.88,1.39,2.33,1.39,4.34v2.37c-.66-.09-1.32-.16-2.03-.2-1.57-.1-2.96-.15-4.17-.15-2.41,0-4.59.4-6.53,1.19-1.94.79-3.49,2.02-4.64,3.67-1.15,1.65-1.72,3.75-1.72,6.3,0,1.61.36,3.17,1.09,4.69.73,1.52,1.82,2.77,3.28,3.77,1.46.99,3.31,1.49,5.54,1.49,1.94,0,3.69-.38,5.24-1.12,1.55-.75,2.92-1.65,4.09-2.7.27-.24.53-.48.77-.71.46.99,1.11,1.86,1.97,2.59.93.78,2.14,1.29,3.63,1.54.58-.38,1.13-.94,1.64-1.69.51-.75.86-1.46,1.04-2.13-.74-.67-1.23-1.46-1.49-2.36-.26-.9-.39-1.97-.39-3.2ZM596.43,385.96c-1.75,1.12-3.42,1.67-5.01,1.67-1.38,0-2.44-.45-3.18-1.36-.74-.9-1.1-2-1.1-3.3,0-1.72.52-3.08,1.56-4.09,1.04-1,2.53-1.51,4.47-1.51,1.25,0,2.61.04,4.09.12.56.03,1.09.08,1.61.14v6.27c-.74.81-1.55,1.5-2.43,2.06Z"/>
  <path class="cls-1" d="M657.34,369.27c-.91-.59-1.85-1.02-2.81-1.3.72-.28,1.4-.64,2.04-1.1,1.32-.94,2.35-2.13,3.1-3.57.75-1.44,1.12-3.01,1.12-4.7,0-2.57-.55-4.75-1.66-6.55-1.11-1.8-2.75-3.18-4.94-4.14-2.19-.96-4.92-1.44-8.2-1.44-2.23,0-4.52.03-6.87.08-2.35.06-4.77.11-7.27.15l-.43.44v45.01l.43.43c2.59.05,5.07.09,7.45.15s4.9.08,7.55.08c3.68,0,6.71-.56,9.09-1.69,2.38-1.13,4.14-2.67,5.29-4.64,1.15-1.97,1.72-4.24,1.72-6.83,0-2.26-.53-4.28-1.57-6.08-1.05-1.8-2.4-3.24-4.05-4.32ZM642.52,352.26c1.31.01,2.4.02,3.27.02,2.03,0,3.57.33,4.62.99,1.05.66,1.76,1.5,2.14,2.51.38,1.02.57,2.06.57,3.13s-.2,2.05-.59,3.08c-.39,1.03-1.13,1.89-2.21,2.58-1.08.69-2.63,1.04-4.64,1.04h-6.7v-13.4c1.05.02,2.23.04,3.53.05ZM654.83,381.88c-.22.91-.64,1.76-1.24,2.54-.6.78-1.46,1.42-2.56,1.91-1.11.49-2.53.74-4.27.74-1.18,0-2.43,0-3.75.02-1.32.01-2.66.03-4.02.05v-15.71h7.4c2.3,0,4.09.42,5.36,1.27,1.27.85,2.16,1.88,2.66,3.1.5,1.22.75,2.37.75,3.46,0,.83-.11,1.7-.34,2.61Z"/>
  <path class="cls-1" d="M695.18,383.65v-13.7c0-2.61-.48-4.74-1.42-6.4-.95-1.65-2.26-2.87-3.92-3.67-1.66-.79-3.58-1.19-5.74-1.19-1.49,0-3.09.14-4.79.42s-3.35.65-4.97,1.1c-1.62.46-3.06.97-4.34,1.53.04.94.26,1.92.64,2.95.38,1.03.86,1.84,1.44,2.45,1.76-.67,3.53-1.25,5.31-1.74,1.78-.49,3.49-.74,5.14-.74s3.01.44,3.93,1.32c.93.88,1.39,2.33,1.39,4.34v2.37c-.66-.09-1.33-.16-2.03-.2-1.57-.1-2.96-.15-4.17-.15-2.41,0-4.59.4-6.53,1.19-1.94.79-3.49,2.02-4.64,3.67-1.15,1.65-1.72,3.75-1.72,6.3,0,1.61.36,3.17,1.09,4.69.73,1.52,1.82,2.77,3.28,3.77,1.46.99,3.31,1.49,5.54,1.49,1.94,0,3.69-.38,5.24-1.12,1.55-.75,2.92-1.65,4.09-2.7.27-.24.53-.48.77-.71.46.99,1.11,1.86,1.97,2.59.93.78,2.14,1.29,3.63,1.54.58-.38,1.13-.94,1.64-1.69.51-.75.86-1.46,1.04-2.13-.74-.67-1.23-1.46-1.49-2.36-.26-.9-.39-1.97-.39-3.2ZM685.42,385.96c-1.75,1.12-3.42,1.67-5.01,1.67-1.38,0-2.44-.45-3.18-1.36-.74-.9-1.1-2-1.1-3.3,0-1.72.52-3.08,1.56-4.09,1.04-1,2.53-1.51,4.47-1.51,1.25,0,2.61.04,4.09.12.56.03,1.09.08,1.61.14v6.27c-.74.81-1.55,1.5-2.43,2.06Z"/>
  <path class="cls-1" d="M731.52,385.26v-15.27c0-2.1-.31-3.99-.94-5.68-.63-1.69-1.6-3.02-2.91-4-1.32-.98-3.03-1.47-5.13-1.47-2.39,0-4.65.6-6.77,1.81-1.32.75-2.5,1.61-3.58,2.55v-15.24c0-1.65-.28-2.85-.84-3.58-.56-.74-1.62-1.11-3.18-1.11h-2.81l-.44.44v48.83c1.12.2,2.31.3,3.58.3,1.41,0,2.63-.1,3.68-.3v-23.13c.28-.3.57-.58.89-.85,1.13-.96,2.31-1.7,3.55-2.23,1.24-.52,2.4-.79,3.47-.79,1.56,0,2.62.49,3.17,1.46.55.97.82,2.54.82,4.71v16.58c0,1.54.29,2.71.87,3.52.58.8,1.61,1.21,3.08,1.21.91,0,1.79-.15,2.61-.45.83-.3,1.51-.69,2.04-1.16-.45-.78-.75-1.7-.92-2.76-.17-1.06-.25-2.18-.25-3.36Z"/>
  <path class="cls-1" d="M743.95,359.17h-1c-.51,0-1.17.02-1.98.07-.8.04-1.64.12-2.51.24-.11.47-.19.93-.23,1.39-.05.46-.07.9-.07,1.32,0,.89.1,1.77.3,2.61h.8c1.12,0,1.89.3,2.31.89.42.59.64,1.47.64,2.63v24.21c1.07.2,2.31.3,3.72.3s2.65-.1,3.72-.3v-27.09c0-1.94-.51-3.47-1.52-4.59-1.02-1.12-2.41-1.67-4.17-1.67Z"/>
  <path class="cls-1" d="M742.49,354.15c.75.16,1.47.24,2.16.24.65,0,1.37-.08,2.16-.24.79-.16,1.37-.35,1.72-.6.42-.94.64-1.99.64-3.15,0-.49-.06-1.03-.18-1.61-.12-.58-.27-1.08-.45-1.51-.38-.25-.96-.45-1.74-.62-.78-.17-1.49-.25-2.14-.25-.69,0-1.4.08-2.13.25-.73.17-1.31.37-1.76.62-.42.92-.64,1.95-.64,3.11s.21,2.21.64,3.15c.4.25.98.45,1.72.6Z"/>
  <path class="cls-1" d="M784.02,386.85c-.26-.9-.39-1.97-.39-3.2v-13.7c0-2.61-.48-4.74-1.42-6.4-.95-1.65-2.26-2.87-3.92-3.67-1.66-.79-3.58-1.19-5.74-1.19-1.49,0-3.09.14-4.79.42-1.7.28-3.35.65-4.97,1.1-1.62.46-3.06.97-4.34,1.53.04.94.26,1.92.64,2.95.38,1.03.86,1.84,1.44,2.45,1.76-.67,3.53-1.25,5.31-1.74,1.78-.49,3.49-.74,5.14-.74s3.01.44,3.93,1.32c.93.88,1.39,2.33,1.39,4.34v2.37c-.66-.09-1.33-.16-2.03-.2-1.57-.1-2.96-.15-4.17-.15-2.41,0-4.59.4-6.53,1.19-1.94.79-3.49,2.02-4.64,3.67-1.15,1.65-1.72,3.75-1.72,6.3,0,1.61.36,3.17,1.09,4.69.73,1.52,1.82,2.77,3.28,3.77,1.46.99,3.31,1.49,5.54,1.49,1.94,0,3.69-.38,5.24-1.12,1.55-.75,2.92-1.65,4.09-2.7.27-.24.53-.48.77-.71.46.99,1.11,1.86,1.97,2.59.93.78,2.14,1.29,3.63,1.54.58-.38,1.13-.94,1.64-1.69.51-.75.86-1.46,1.04-2.13-.74-.67-1.23-1.46-1.49-2.36ZM773.87,385.96c-1.75,1.12-3.42,1.67-5.01,1.67-1.38,0-2.44-.45-3.18-1.36-.74-.9-1.1-2-1.1-3.3,0-1.72.52-3.08,1.56-4.09,1.04-1,2.53-1.51,4.47-1.51,1.25,0,2.61.04,4.09.12.56.03,1.09.08,1.61.14v6.27c-.74.81-1.55,1.5-2.43,2.06Z"/>
  <path class="cls-1" d="M338.34,219.57c6.24,3.2,13.69,4.8,22.35,4.8s16.13-1.6,22.43-4.8c6.29-3.2,11.12-7.89,14.48-14.08,3.36-6.18,5.04-13.8,5.04-22.83v-70.68c-1.61-.32-3.43-.52-5.45-.6-2.02-.08-3.72-.12-5.12-.12s-3.08.04-4.88.12c-1.8.08-3.54.28-5.21.6v70.84c0,8.23-1.72,14.47-5.16,18.72-3.44,4.25-8.79,6.37-16.06,6.37s-12.63-2.12-16.09-6.37c-3.47-4.25-5.2-10.49-5.2-18.72v-58.57c0-4.57-.96-7.9-2.86-10-1.91-2.1-4.91-3.15-9-3.15h-7.75l-.97,1.13v70.43c0,9.04,1.68,16.65,5.04,22.83,3.36,6.19,8.16,10.88,14.4,14.08Z"/>
  <path class="cls-1" d="M434.75,222.91c1.56,0,3.23-.04,5-.12,1.77-.08,3.49-.28,5.16-.6v-46.25c1.54.01,3.12.02,4.76.02h22.27c3.82,0,6.67-.75,8.55-2.26,1.88-1.5,2.83-3.95,2.83-7.34,0-1.18-.08-2.53-.24-4.04-.16-1.5-.43-2.82-.81-3.95h-37.35v-12.42c0-4.14-.03-8.4-.08-12.79-.02-1.26-.02-2.51-.04-3.76.68.02,1.36.03,2.05.05,3.6.08,7.56.12,11.86.12h22.27c3.82,0,6.67-.75,8.55-2.26,1.88-1.5,2.83-3.95,2.83-7.34,0-1.18-.08-2.53-.24-4.04-.16-1.5-.43-2.82-.81-3.95h-65.92l-1.05.97v109.24c1.67.32,3.44.52,5.33.6,1.88.08,3.58.12,5.08.12Z"/>
  <path class="cls-1" d="M524.87,222.71c6.02.14,12.21.2,18.56.2,8.66,0,15.91-1.29,21.74-3.87s10.22-6.25,13.15-11.01c2.93-4.76,4.4-10.42,4.4-16.98,0-5.33-1.24-10.15-3.71-14.48-2.47-4.33-5.68-7.81-9.6-10.45-2.16-1.45-4.41-2.51-6.74-3.21,1.66-.66,3.24-1.52,4.72-2.59,3.12-2.26,5.58-5.12,7.38-8.59,1.8-3.47,2.7-7.22,2.7-11.26,0-6.35-1.4-11.7-4.2-16.06-2.8-4.36-6.9-7.64-12.3-9.84-5.4-2.21-11.98-3.31-19.73-3.31-5.54,0-11.23.05-17.07.16-5.84.11-11.82.24-17.95.4l-1.05,1.05v108.44l1.05,1.05c6.4.11,12.61.23,18.64.36ZM561.02,196.01c-.54,2.07-1.48,4.01-2.83,5.81s-3.27,3.27-5.77,4.4c-2.5,1.13-5.74,1.7-9.72,1.7h-8.15c-2.96,0-5.97.05-9.04.16v-36.06h16.54c5.22,0,9.25.97,12.1,2.9,2.85,1.94,4.84,4.29,5.97,7.06,1.13,2.77,1.7,5.45,1.7,8.03,0,1.94-.27,3.94-.81,6.01ZM533.34,126.38c2.85.03,5.24.04,7.18.04,4.47,0,7.89.75,10.29,2.26s4.03,3.4,4.92,5.69c.89,2.29,1.33,4.64,1.33,7.06s-.46,4.73-1.37,7.1c-.92,2.37-2.58,4.32-5,5.85-2.42,1.53-5.89,2.3-10.41,2.3h-14.77v-30.42c2.37.05,4.98.1,7.83.12Z"/>
  <path class="cls-1" d="M652.08,189.01l7.13,23.41c1.29,4.36,2.85,7.27,4.68,8.75,1.83,1.48,4.36,2.22,7.58,2.22,2.1,0,4.25-.22,6.45-.65,2.21-.43,4.04-1.05,5.49-1.86l-35.58-108.84c-1.56-.27-3.5-.47-5.81-.6-2.31-.14-4.31-.2-5.97-.2s-3.66.07-5.97.2c-2.31.13-4.3.31-5.97.52l-36.06,108.76.65,1.05c1.29.43,2.86.75,4.72.97,1.86.21,3.62.32,5.29.32s3.17-.04,4.68-.12c1.5-.08,2.87-.28,4.11-.6,0,0,11.64-26.81,44.59-33.34h0ZM627.5,157.8c1.02-3.55,2.23-7.82,3.63-12.83,1.4-5,2.5-9.47,3.31-13.39h.89c1.18,4.68,2.57,9.82,4.15,15.41,1.59,5.6,3.08,10.7,4.48,15.33l3.31,10.87c-3.33.58-17.03,3.7-28.43,12.56h0l8.66-27.94Z"/>
</svg>