<?xml version="1.0" encoding="UTF-8" standalone="no"?>
<svg xmlns:dc="http://purl.org/dc/elements/1.1/"
   xmlns:cc="http://creativecommons.org/ns#"
   xmlns:rdf="http://www.w3.org/1999/02/22-rdf-syntax-ns#"
   xmlns:svg="http://www.w3.org/2000/svg"
   xmlns="http://www.w3.org/2000/svg"
   xmlns:sodipodi="http://sodipodi.sourceforge.net/DTD/sodipodi-0.dtd"
   xmlns:inkscape="http://www.inkscape.org/namespaces/inkscape" inkscape:version="1.1-dev (bc69992, 2020-04-15)" height="39.209999" width="224.60001" sodipodi:docname="saocarlos.svg" xml:space="preserve" viewBox="0 0 224.6 39.209998" y="0px" x="0px" id="Camada_1" version="1.1">
   <metadata id="metadata984">
      <rdf:RDF>
         <cc:Work rdf:about="">
            <dc:format>image/svg+xml</dc:format>
            <dc:type rdf:resource="http://purl.org/dc/dcmitype/StillImage" />
            <dc:title></dc:title>
         </cc:Work>
      </rdf:RDF>
   </metadata>
   <defs id="defs982" />
   <sodipodi:namedview width="224.6px" inkscape:current-layer="Camada_1" inkscape:window-maximized="0" inkscape:window-y="25" inkscape:window-x="0" inkscape:cy="9.2316444" inkscape:cx="147.37" inkscape:zoom="1.2388792" showgrid="false" id="namedview980" inkscape:window-height="681" inkscape:window-width="1593" inkscape:pageshadow="2" inkscape:pageopacity="0" guidetolerance="10" gridtolerance="10" objecttolerance="10" borderopacity="1" bordercolor="#666666" pagecolor="#ffffff" />
   <style id="style833" type="text/css">
	.st0{fill:#FFFFFF;}
   </style>
   <rect style="display:none;fill:#000000;stroke:#0b1f3a" id="rect910" width="299.46423" height="39.55188" x="0" y="-0.80718118" />
   <g transform="translate(-221.4,-401.22)" id="g977">
      <g id="g849">
         <g id="g847">
            <path id="path835" d="m 238.42,422.69 c 0,5.67 -2.6,8.48 -8.51,8.48 -5.91,0 -8.51,-2.82 -8.51,-8.48 v -11.47 h 5.09 v 11.77 c 0,2.52 0.93,3.8 3.42,3.8 2.49,0 3.42,-1.29 3.42,-3.8 v -11.77 h 5.09 z" class="st0" />
            <path id="path837" d="m 241.98,411.23 h 14.4 v 4.08 h -9.3 v 4 h 8.05 v 3.94 h -8.05 v 7.53 h -5.09 v -19.55 z" class="st0" />
            <path id="path839" d="m 262.67,424.2 c 0.11,2.3 1.53,3.04 3.69,3.04 1.53,0 3.12,-0.55 3.12,-2 0,-1.72 -2.79,-2.05 -5.61,-2.85 -2.79,-0.79 -5.72,-2.05 -5.72,-5.64 0,-4.27 4.3,-5.94 7.96,-5.94 3.89,0 7.8,1.89 7.83,6.29 h -5.09 c 0.08,-1.78 -1.59,-2.35 -3.15,-2.35 -1.09,0 -2.46,0.38 -2.46,1.67 0,1.51 2.82,1.78 5.67,2.57 2.82,0.79 5.67,2.11 5.67,5.64 0,4.95 -4.22,6.54 -8.51,6.54 -4.49,0 -8.46,-1.97 -8.48,-6.98 h 5.08 z" class="st0" />
            <path id="path841" d="m 289.82,418.2 c -0.27,-1.97 -1.81,-3.01 -3.94,-3.01 -3.28,0 -4.54,2.9 -4.54,5.8 0,2.9 1.26,5.8 4.54,5.8 2.38,0 3.75,-1.37 3.94,-3.61 h 5.09 c -0.27,5.04 -3.97,7.99 -8.92,7.99 -5.91,0 -9.74,-4.52 -9.74,-10.18 0,-5.67 3.83,-10.18 9.74,-10.18 4.22,0 8.79,2.68 8.92,7.39 z" class="st0" />
            <path id="path843" d="m 297.21,420.94 c 0.08,-1.86 0.96,-3.07 2.22,-3.8 1.26,-0.71 2.9,-0.98 4.52,-0.98 3.37,0 6.62,0.74 6.62,4.76 v 6.21 c 0,1.2 0,2.52 0.55,3.64 h -4.68 c -0.16,-0.44 -0.22,-0.88 -0.27,-1.34 -1.2,1.26 -2.98,1.75 -4.68,1.75 -2.71,0 -4.84,-1.37 -4.84,-4.3 0,-4.63 5.04,-4.27 8.26,-4.93 0.79,-0.16 1.23,-0.44 1.23,-1.31 0,-1.07 -1.29,-1.48 -2.24,-1.48 -1.29,0 -2.11,0.58 -2.33,1.78 z m 6.02,7.36 c 2.22,0 2.96,-1.26 2.85,-4.19 -0.66,0.41 -1.86,0.49 -2.87,0.77 -1.04,0.25 -1.92,0.68 -1.92,1.81 0,1.15 0.9,1.61 1.94,1.61 z" class="st0" />
            <path id="path845" d="m 313.77,416.56 h 4.52 v 2.49 h 0.06 c 0.68,-1.81 2.27,-2.76 4.27,-2.76 0.36,0 0.74,0.03 1.09,0.11 v 4.24 c -0.6,-0.16 -1.15,-0.27 -1.78,-0.27 -2.3,0 -3.5,1.59 -3.5,3.37 v 7.03 h -4.65 v -14.21 z" class="st0" />
         </g>
      </g>
      <g id="g911">
         <path id="path851" d="m 340.34,411.15 h 1.38 v 4.6 c 0,1.06 0.07,2.29 1.86,2.29 1.79,0 1.86,-1.23 1.86,-2.29 v -4.6 h 1.38 v 5.06 c 0,2.02 -1.29,3.03 -3.24,3.03 -1.95,0 -3.24,-1.01 -3.24,-3.03 z" class="st0" />
         <path id="path853" d="m 348.17,413.33 h 1.19 v 0.84 l 0.02,0.02 c 0.38,-0.63 1.03,-1.02 1.78,-1.02 1.24,0 2.02,0.66 2.02,1.95 v 3.93 h -1.26 v -3.6 c -0.02,-0.9 -0.38,-1.28 -1.12,-1.28 -0.84,0 -1.38,0.66 -1.38,1.5 v 3.37 h -1.26 v -5.71 z" class="st0" />
         <path id="path855" d="m 354.48,411.15 h 1.26 v 1.19 h -1.26 z m 0,2.18 h 1.26 v 5.72 h -1.26 z" class="st0" />
         <path id="path857" d="m 356.48,413.33 h 1.37 l 1.45,4.39 h 0.02 l 1.39,-4.39 h 1.3 l -2.05,5.72 h -1.42 z" class="st0" />
         <path id="path859" d="m 363.7,416.51 c 0,0.9 0.49,1.69 1.54,1.69 0.73,0 1.17,-0.32 1.39,-0.95 h 1.19 c -0.28,1.25 -1.34,1.95 -2.59,1.95 -1.79,0 -2.8,-1.25 -2.8,-3.01 0,-1.63 1.06,-3.02 2.77,-3.02 1.8,0 2.91,1.63 2.7,3.34 z m 2.95,-0.83 c -0.04,-0.8 -0.59,-1.52 -1.44,-1.52 -0.87,0 -1.47,0.66 -1.5,1.52 z" class="st0" />
         <path id="path861" d="m 368.8,413.33 h 1.18 v 1.11 H 370 c 0.14,-0.61 0.9,-1.26 1.67,-1.26 0.29,0 0.37,0.02 0.48,0.03 v 1.22 c -0.18,-0.02 -0.37,-0.06 -0.54,-0.06 -0.86,0 -1.55,0.7 -1.55,1.96 v 2.72 h -1.26 z" class="st0" />
         <path id="path863" d="m 373.58,417.21 c 0.07,0.73 0.62,1 1.29,1 0.48,0 1.31,-0.1 1.27,-0.75 -0.03,-0.66 -0.95,-0.74 -1.87,-0.95 -0.93,-0.2 -1.84,-0.53 -1.84,-1.69 0,-1.25 1.35,-1.64 2.39,-1.64 1.17,0 2.23,0.49 2.39,1.76 h -1.32 c -0.11,-0.6 -0.61,-0.76 -1.16,-0.76 -0.36,0 -1.04,0.09 -1.04,0.59 0,0.62 0.93,0.71 1.86,0.92 0.92,0.21 1.85,0.54 1.85,1.67 0,1.36 -1.37,1.86 -2.55,1.86 -1.44,0 -2.51,-0.64 -2.53,-1.99 h 1.26 z" class="st0" />
         <path id="path865" d="m 378.33,411.15 h 1.26 v 1.19 h -1.26 z m 0,2.18 h 1.26 v 5.72 h -1.26 z" class="st0" />
         <path id="path867" d="m 386.28,419.05 h -1.19 v -0.77 h -0.02 c -0.33,0.65 -1.05,0.93 -1.77,0.93 -1.8,0 -2.68,-1.34 -2.68,-3.05 0,-2.07 1.23,-2.98 2.48,-2.98 0.72,0 1.52,0.27 1.9,0.9 h 0.02 v -2.92 h 1.26 z m -2.82,-0.84 c 1.13,0 1.6,-1.03 1.6,-2.02 0,-1.26 -0.61,-2.01 -1.58,-2.01 -1.18,0 -1.6,1.05 -1.6,2.08 0,0.97 0.49,1.95 1.58,1.95 z" class="st0" />
         <path id="path869" d="m 392.38,417.77 c 0,0.31 0.07,0.43 0.3,0.43 0.08,0 0.18,0 0.31,-0.02 v 0.87 c -0.19,0.07 -0.59,0.14 -0.8,0.14 -0.51,0 -0.87,-0.18 -0.97,-0.7 -0.5,0.49 -1.3,0.7 -1.98,0.7 -1.03,0 -1.96,-0.55 -1.96,-1.67 0,-1.43 1.14,-1.66 2.2,-1.78 0.91,-0.17 1.71,-0.07 1.71,-0.81 0,-0.65 -0.67,-0.77 -1.18,-0.77 -0.71,0 -1.21,0.29 -1.26,0.91 h -1.26 c 0.09,-1.47 1.34,-1.9 2.6,-1.9 1.12,0 2.29,0.45 2.29,1.66 z m -1.26,-1.59 c -0.39,0.25 -1,0.24 -1.55,0.34 -0.54,0.09 -1.03,0.29 -1.03,0.95 0,0.56 0.72,0.73 1.16,0.73 0.55,0 1.42,-0.29 1.42,-1.08 z" class="st0" />
         <path id="path871" d="m 399.06,419.05 h -1.19 v -0.77 h -0.02 c -0.33,0.65 -1.05,0.93 -1.77,0.93 -1.8,0 -2.68,-1.34 -2.68,-3.05 0,-2.07 1.23,-2.98 2.48,-2.98 0.72,0 1.52,0.27 1.9,0.9 h 0.02 v -2.92 h 1.26 z m -2.82,-0.84 c 1.13,0 1.6,-1.03 1.6,-2.02 0,-1.26 -0.61,-2.01 -1.58,-2.01 -1.18,0 -1.6,1.05 -1.6,2.08 0,0.97 0.48,1.95 1.58,1.95 z" class="st0" />
         <path id="path873" d="m 401.35,416.51 c 0,0.9 0.49,1.69 1.54,1.69 0.73,0 1.17,-0.32 1.39,-0.95 h 1.19 c -0.28,1.25 -1.34,1.95 -2.59,1.95 -1.79,0 -2.8,-1.25 -2.8,-3.01 0,-1.63 1.06,-3.02 2.77,-3.02 1.8,0 2.91,1.63 2.7,3.34 z m 2.94,-0.83 c -0.04,-0.8 -0.59,-1.52 -1.44,-1.52 -0.87,0 -1.47,0.66 -1.5,1.52 z" class="st0" />
         <path id="path875" d="m 409.63,411.15 h 5.45 v 1.19 h -4.07 v 2.07 h 3.57 v 1.13 h -3.57 v 3.51 h -1.38 z" class="st0" />
         <path id="path877" d="m 416.93,416.51 c 0,0.9 0.49,1.69 1.54,1.69 0.73,0 1.17,-0.32 1.39,-0.95 h 1.19 c -0.28,1.25 -1.34,1.95 -2.59,1.95 -1.79,0 -2.8,-1.25 -2.8,-3.01 0,-1.63 1.06,-3.02 2.77,-3.02 1.8,0 2.91,1.63 2.7,3.34 z m 2.94,-0.83 c -0.04,-0.8 -0.59,-1.52 -1.44,-1.52 -0.87,0 -1.47,0.66 -1.5,1.52 z" class="st0" />
         <path id="path879" d="m 427.41,419.05 h -1.19 v -0.77 h -0.02 c -0.33,0.65 -1.05,0.93 -1.77,0.93 -1.8,0 -2.68,-1.34 -2.68,-3.05 0,-2.07 1.23,-2.98 2.48,-2.98 0.72,0 1.52,0.27 1.9,0.9 h 0.02 v -2.92 h 1.26 z m -2.82,-0.84 c 1.13,0 1.6,-1.03 1.6,-2.02 0,-1.26 -0.61,-2.01 -1.58,-2.01 -1.18,0 -1.6,1.05 -1.6,2.08 0,0.97 0.49,1.95 1.58,1.95 z" class="st0" />
         <path id="path881" d="m 429.7,416.51 c 0,0.9 0.49,1.69 1.54,1.69 0.73,0 1.17,-0.32 1.39,-0.95 h 1.19 c -0.28,1.25 -1.34,1.95 -2.59,1.95 -1.79,0 -2.8,-1.25 -2.8,-3.01 0,-1.63 1.06,-3.02 2.77,-3.02 1.8,0 2.91,1.63 2.7,3.34 z m 2.94,-0.83 c -0.04,-0.8 -0.59,-1.52 -1.44,-1.52 -0.87,0 -1.47,0.66 -1.5,1.52 z" class="st0" />
         <path id="path883" d="m 434.8,413.33 h 1.18 v 1.11 H 436 c 0.14,-0.61 0.9,-1.26 1.67,-1.26 0.29,0 0.37,0.02 0.48,0.03 v 1.22 c -0.18,-0.02 -0.37,-0.06 -0.54,-0.06 -0.86,0 -1.55,0.7 -1.55,1.96 v 2.72 h -1.26 z" class="st0" />
         <path id="path885" d="m 443.41,417.77 c 0,0.31 0.07,0.43 0.3,0.43 0.08,0 0.18,0 0.31,-0.02 v 0.87 c -0.19,0.07 -0.59,0.14 -0.8,0.14 -0.51,0 -0.87,-0.18 -0.97,-0.7 -0.5,0.49 -1.3,0.7 -1.98,0.7 -1.03,0 -1.96,-0.55 -1.96,-1.67 0,-1.43 1.14,-1.66 2.2,-1.78 0.91,-0.17 1.71,-0.07 1.71,-0.81 0,-0.65 -0.67,-0.77 -1.18,-0.77 -0.71,0 -1.21,0.29 -1.26,0.91 h -1.26 c 0.09,-1.47 1.34,-1.9 2.6,-1.9 1.12,0 2.29,0.45 2.29,1.66 z m -1.26,-1.59 c -0.39,0.25 -1,0.24 -1.55,0.34 -0.54,0.09 -1.03,0.29 -1.03,0.95 0,0.56 0.72,0.73 1.16,0.73 0.55,0 1.42,-0.29 1.42,-1.08 z" class="st0" />
         <path id="path887" d="M 444.74,411.15 H 446 v 7.9 h -1.26 z" class="st0" />
         <path id="path889" d="m 345.63,430.45 h -1.19 v -0.77 h -0.02 c -0.33,0.65 -1.05,0.93 -1.77,0.93 -1.8,0 -2.68,-1.34 -2.68,-3.05 0,-2.07 1.23,-2.98 2.48,-2.98 0.72,0 1.52,0.27 1.9,0.9 h 0.02 v -2.92 h 1.26 z m -2.82,-0.85 c 1.13,0 1.6,-1.03 1.6,-2.02 0,-1.26 -0.61,-2.01 -1.58,-2.01 -1.18,0 -1.6,1.05 -1.6,2.08 0,0.98 0.49,1.95 1.58,1.95 z" class="st0" />
         <path id="path891" d="m 347.92,427.91 c 0,0.9 0.49,1.69 1.54,1.69 0.73,0 1.17,-0.32 1.39,-0.95 h 1.19 c -0.28,1.25 -1.34,1.95 -2.59,1.95 -1.79,0 -2.8,-1.25 -2.8,-3.01 0,-1.63 1.06,-3.02 2.77,-3.02 1.8,0 2.91,1.63 2.7,3.34 z m 2.94,-0.83 c -0.04,-0.8 -0.59,-1.52 -1.44,-1.52 -0.87,0 -1.47,0.66 -1.5,1.52 z" class="st0" />
         <path id="path893" d="m 357.11,427.81 c 0,1.22 0.9,1.69 2,1.69 1.22,0 1.67,-0.6 1.67,-1.19 0,-0.61 -0.33,-0.85 -0.65,-0.97 -0.55,-0.21 -1.27,-0.35 -2.36,-0.65 -1.35,-0.37 -1.75,-1.18 -1.75,-2 0,-1.58 1.46,-2.32 2.89,-2.32 1.65,0 3.03,0.87 3.03,2.52 h -1.38 c -0.07,-1.02 -0.75,-1.39 -1.7,-1.39 -0.64,0 -1.45,0.23 -1.45,1.03 0,0.55 0.38,0.86 0.94,1.02 0.12,0.03 1.87,0.49 2.28,0.61 1.04,0.31 1.54,1.19 1.54,2.01 0,1.77 -1.57,2.48 -3.14,2.48 -1.8,0 -3.26,-0.86 -3.3,-2.82 h 1.38 z" class="st0" />
         <path id="path895" d="m 367.92,429.17 c 0,0.31 0.07,0.43 0.3,0.43 0.08,0 0.18,0 0.31,-0.02 v 0.87 c -0.19,0.07 -0.59,0.14 -0.8,0.14 -0.51,0 -0.87,-0.18 -0.97,-0.7 -0.5,0.49 -1.3,0.7 -1.98,0.7 -1.03,0 -1.96,-0.55 -1.96,-1.67 0,-1.43 1.14,-1.66 2.2,-1.78 0.91,-0.17 1.71,-0.07 1.71,-0.81 0,-0.65 -0.67,-0.77 -1.18,-0.77 -0.71,0 -1.21,0.29 -1.26,0.91 h -1.26 c 0.09,-1.47 1.34,-1.9 2.6,-1.9 1.12,0 2.29,0.45 2.29,1.66 z m -0.42,-6.62 c -0.05,0.35 -0.17,0.67 -0.37,0.9 -0.19,0.23 -0.46,0.38 -0.86,0.38 -0.24,0 -0.54,-0.1 -0.82,-0.21 -0.29,-0.1 -0.55,-0.2 -0.76,-0.2 -0.25,0 -0.46,0.24 -0.46,0.45 h -0.63 c 0.09,-0.56 0.48,-1.25 1.15,-1.25 0.35,0 0.64,0.1 0.9,0.21 0.25,0.1 0.48,0.21 0.69,0.21 0.32,0 0.48,-0.2 0.55,-0.49 z m -0.84,5.03 c -0.39,0.25 -1,0.24 -1.55,0.34 -0.54,0.09 -1.03,0.29 -1.03,0.95 0,0.56 0.72,0.73 1.16,0.73 0.55,0 1.42,-0.29 1.42,-1.08 z" class="st0" />
         <path id="path897" d="m 368.94,427.58 c 0,-1.75 1.05,-3.01 2.89,-3.01 1.84,0 2.89,1.26 2.89,3.01 0,1.76 -1.05,3.02 -2.89,3.02 -1.84,0 -2.89,-1.26 -2.89,-3.02 z m 4.52,0 c 0,-0.98 -0.5,-2.01 -1.63,-2.01 -1.13,0 -1.63,1.03 -1.63,2.01 0,1 0.5,2.02 1.63,2.02 1.13,0 1.63,-1.02 1.63,-2.02 z" class="st0" />
         <path id="path899" d="m 384.22,425.06 c -0.23,-0.91 -0.82,-1.57 -1.97,-1.57 -1.69,0 -2.4,1.49 -2.4,3.01 0,1.52 0.71,3.01 2.4,3.01 1.23,0 1.9,-0.92 2.01,-2.07 h 1.35 c -0.11,1.89 -1.45,3.2 -3.36,3.2 -2.37,0 -3.78,-1.88 -3.78,-4.14 0,-2.26 1.42,-4.14 3.78,-4.14 1.78,0.01 3.19,1 3.35,2.7 z" class="st0" />
         <path id="path901" d="m 391.42,429.17 c 0,0.31 0.07,0.43 0.3,0.43 0.08,0 0.18,0 0.31,-0.02 v 0.87 c -0.19,0.07 -0.59,0.14 -0.8,0.14 -0.51,0 -0.87,-0.18 -0.97,-0.7 -0.5,0.49 -1.3,0.7 -1.98,0.7 -1.03,0 -1.96,-0.55 -1.96,-1.67 0,-1.43 1.14,-1.66 2.2,-1.78 0.91,-0.17 1.71,-0.07 1.71,-0.81 0,-0.65 -0.67,-0.77 -1.18,-0.77 -0.71,0 -1.21,0.29 -1.26,0.91 h -1.26 c 0.09,-1.47 1.34,-1.9 2.6,-1.9 1.12,0 2.29,0.45 2.29,1.66 z m -1.27,-1.59 c -0.39,0.25 -1,0.24 -1.55,0.34 -0.54,0.09 -1.03,0.29 -1.03,0.95 0,0.56 0.72,0.73 1.16,0.73 0.55,0 1.42,-0.29 1.42,-1.08 z" class="st0" />
         <path id="path903" d="m 392.71,424.73 h 1.18 v 1.11 h 0.02 c 0.14,-0.61 0.9,-1.26 1.67,-1.26 0.29,0 0.37,0.02 0.48,0.03 v 1.22 c -0.18,-0.02 -0.37,-0.06 -0.54,-0.06 -0.86,0 -1.55,0.7 -1.55,1.96 v 2.72 h -1.26 z" class="st0" />
         <path id="path905" d="m 396.57,422.55 h 1.26 v 7.9 h -1.26 z" class="st0" />
         <path id="path907" d="m 398.87,427.58 c 0,-1.75 1.05,-3.01 2.89,-3.01 1.84,0 2.89,1.26 2.89,3.01 0,1.76 -1.05,3.02 -2.89,3.02 -1.84,0 -2.89,-1.26 -2.89,-3.02 z m 4.51,0 c 0,-0.98 -0.5,-2.01 -1.63,-2.01 -1.13,0 -1.63,1.03 -1.63,2.01 0,1 0.5,2.02 1.63,2.02 1.13,0 1.63,-1.02 1.63,-2.02 z" class="st0" />
         <path id="path909" d="m 406.58,428.61 c 0.07,0.73 0.62,1 1.29,1 0.48,0 1.31,-0.1 1.27,-0.75 -0.03,-0.66 -0.95,-0.74 -1.87,-0.95 -0.93,-0.2 -1.84,-0.53 -1.84,-1.69 0,-1.25 1.35,-1.64 2.39,-1.64 1.17,0 2.23,0.49 2.39,1.76 h -1.32 c -0.11,-0.6 -0.61,-0.76 -1.16,-0.76 -0.36,0 -1.04,0.09 -1.04,0.59 0,0.62 0.93,0.71 1.86,0.92 0.92,0.21 1.85,0.54 1.85,1.67 0,1.36 -1.37,1.86 -2.55,1.86 -1.44,0 -2.51,-0.64 -2.53,-1.99 h 1.26 z" class="st0" />
      </g>
   </g>
</svg>
